<svg width="450" height="579" viewBox="0 0 293 377" fill="none" xmlns="http://www.w3.org/2000/svg">
    <path d="M44.7304 353.648H47.0584V368.768H55.8664V371H44.7304V353.648ZM59.1081 361.064H61.3401V371H59.1081V361.064ZM58.9401 357.464C58.9401 357.112 59.0761 356.816 59.3481 356.576C59.6361 356.336 59.9481 356.216 60.2841 356.216C60.6201 356.216 60.9161 356.336 61.1721 356.576C61.4441 356.816 61.5801 357.112 61.5801 357.464C61.5801 357.832 61.4441 358.136 61.1721 358.376C60.9161 358.6 60.6201 358.712 60.2841 358.712C59.9481 358.712 59.6361 358.592 59.3481 358.352C59.0761 358.112 58.9401 357.816 58.9401 357.464ZM66.1618 356.696H68.3938V361.112H71.1298V362.864H68.3938V371H66.1618V362.864H64.3378V361.112H66.1618V356.696ZM76.9708 371.384C76.0748 371.384 75.3308 371.112 74.7388 370.568C74.1628 370.008 73.8588 369.288 73.8268 368.408V361.064H76.0588V367.616C76.0908 368.16 76.2428 368.6 76.5148 368.936C76.8028 369.272 77.2508 369.448 77.8588 369.464C78.4188 369.464 78.9148 369.304 79.3468 368.984C79.7948 368.648 80.1548 368.2 80.4268 367.64C80.6988 367.064 80.8348 366.416 80.8348 365.696V361.064H83.0668V371H81.0268L80.8348 368.552L80.9548 368.984C80.7628 369.448 80.4668 369.864 80.0668 370.232C79.6828 370.584 79.2268 370.864 78.6988 371.072C78.1708 371.28 77.5948 371.384 76.9708 371.384ZM88.9204 361.064L89.1364 363.944L89.0164 363.56C89.2724 362.952 89.6404 362.44 90.1204 362.024C90.6164 361.592 91.1284 361.264 91.6564 361.04C92.2004 360.8 92.6724 360.68 93.0724 360.68L92.9524 362.888C92.2004 362.84 91.5364 362.984 90.9604 363.32C90.4004 363.656 89.9524 364.104 89.6164 364.664C89.2964 365.224 89.1364 365.824 89.1364 366.464V371H86.9284V361.064H88.9204ZM100.306 375.92C99.5699 375.92 98.9219 375.832 98.3619 375.656C97.8019 375.496 97.2899 375.264 96.8259 374.96C96.3779 374.656 95.9459 374.312 95.5299 373.928L96.8259 372.416C97.3539 372.912 97.8899 373.296 98.4339 373.568C98.9779 373.84 99.5859 373.976 100.258 373.976C101.01 373.976 101.642 373.848 102.154 373.592C102.682 373.352 103.082 373.008 103.354 372.56C103.626 372.128 103.762 371.624 103.762 371.048L103.786 368.36L103.978 368.792C103.69 369.48 103.17 370.064 102.418 370.544C101.666 371.008 100.754 371.24 99.6819 371.24C98.7699 371.24 97.9299 371.008 97.1619 370.544C96.4099 370.08 95.8019 369.456 95.3379 368.672C94.8899 367.872 94.6659 366.976 94.6659 365.984C94.6659 364.944 94.9059 364.032 95.3859 363.248C95.8659 362.448 96.4979 361.816 97.2819 361.352C98.0659 360.888 98.9219 360.656 99.8499 360.656C100.73 360.656 101.53 360.84 102.25 361.208C102.986 361.56 103.522 362.016 103.858 362.576L103.738 362.984L103.978 361.064H106.018V371.072C106.018 371.968 105.786 372.784 105.322 373.52C104.858 374.256 104.202 374.84 103.354 375.272C102.506 375.704 101.49 375.92 100.306 375.92ZM96.8979 365.936C96.8979 366.576 97.0499 367.16 97.3539 367.688C97.6579 368.216 98.0659 368.632 98.5779 368.936C99.1059 369.24 99.6899 369.392 100.33 369.392C100.922 369.392 101.45 369.288 101.914 369.08C102.394 368.856 102.794 368.56 103.114 368.192C103.434 367.808 103.658 367.368 103.786 366.872V364.904C103.642 364.424 103.402 364.008 103.066 363.656C102.73 363.288 102.33 363.008 101.866 362.816C101.402 362.608 100.89 362.504 100.33 362.504C99.6899 362.504 99.1059 362.648 98.5779 362.936C98.0659 363.224 97.6579 363.632 97.3539 364.16C97.0499 364.672 96.8979 365.264 96.8979 365.936ZM109.874 361.064H112.106V371H109.874V361.064ZM109.706 357.464C109.706 357.112 109.842 356.816 110.114 356.576C110.402 356.336 110.714 356.216 111.05 356.216C111.386 356.216 111.682 356.336 111.938 356.576C112.21 356.816 112.346 357.112 112.346 357.464C112.346 357.832 112.21 358.136 111.938 358.376C111.682 358.6 111.386 358.712 111.05 358.712C110.714 358.712 110.402 358.592 110.114 358.352C109.842 358.112 109.706 357.816 109.706 357.464ZM120.095 371.24C119.167 371.24 118.319 371.04 117.551 370.64C116.799 370.24 116.199 369.656 115.751 368.888C115.319 368.104 115.103 367.152 115.103 366.032C115.103 364.928 115.335 363.976 115.799 363.176C116.263 362.36 116.879 361.736 117.647 361.304C118.431 360.872 119.287 360.656 120.215 360.656C121.143 360.656 121.927 360.872 122.567 361.304C123.207 361.72 123.695 362.216 124.031 362.792L123.887 363.176L124.103 361.064H126.167V371H123.935V368.408L124.175 368.984C124.111 369.144 123.967 369.352 123.743 369.608C123.535 369.848 123.247 370.096 122.879 370.352C122.527 370.608 122.119 370.824 121.655 371C121.191 371.16 120.671 371.24 120.095 371.24ZM120.695 369.392C121.255 369.392 121.759 369.288 122.207 369.08C122.655 368.872 123.023 368.584 123.311 368.216C123.615 367.832 123.823 367.376 123.935 366.848V364.904C123.807 364.424 123.583 364.008 123.263 363.656C122.943 363.288 122.559 363.008 122.111 362.816C121.663 362.608 121.167 362.504 120.623 362.504C120.031 362.504 119.487 362.648 118.991 362.936C118.495 363.224 118.095 363.624 117.791 364.136C117.503 364.648 117.359 365.248 117.359 365.936C117.359 366.576 117.511 367.16 117.815 367.688C118.119 368.216 118.527 368.632 119.039 368.936C119.551 369.24 120.103 369.392 120.695 369.392ZM141.656 371.24C140.744 371.24 139.912 371.024 139.16 370.592C138.424 370.144 137.84 369.52 137.408 368.72C136.976 367.904 136.76 366.968 136.76 365.912C136.76 364.808 136.984 363.864 137.432 363.08C137.896 362.296 138.52 361.696 139.304 361.28C140.088 360.864 140.968 360.656 141.944 360.656C142.728 360.656 143.472 360.824 144.176 361.16C144.896 361.496 145.456 361.96 145.856 362.552L145.76 363.344V352.424H147.968V371H145.736V368.528L145.976 369.152C145.512 369.76 144.912 370.264 144.176 370.664C143.44 371.048 142.6 371.24 141.656 371.24ZM142.352 369.344C142.944 369.344 143.472 369.24 143.936 369.032C144.4 368.808 144.784 368.504 145.088 368.12C145.392 367.736 145.608 367.28 145.736 366.752V364.88C145.608 364.4 145.376 363.984 145.04 363.632C144.72 363.264 144.328 362.976 143.864 362.768C143.416 362.544 142.912 362.432 142.352 362.432C141.744 362.432 141.184 362.584 140.672 362.888C140.176 363.176 139.776 363.576 139.472 364.088C139.168 364.6 139.016 365.192 139.016 365.864C139.016 366.52 139.168 367.112 139.472 367.64C139.776 368.152 140.184 368.568 140.696 368.888C141.208 369.192 141.76 369.344 142.352 369.344ZM155.978 371.24C155.05 371.24 154.202 371.04 153.434 370.64C152.682 370.24 152.082 369.656 151.634 368.888C151.202 368.104 150.986 367.152 150.986 366.032C150.986 364.928 151.218 363.976 151.682 363.176C152.146 362.36 152.762 361.736 153.53 361.304C154.314 360.872 155.17 360.656 156.098 360.656C157.026 360.656 157.81 360.872 158.45 361.304C159.09 361.72 159.578 362.216 159.914 362.792L159.77 363.176L159.986 361.064H162.05V371H159.818V368.408L160.058 368.984C159.994 369.144 159.85 369.352 159.626 369.608C159.418 369.848 159.13 370.096 158.762 370.352C158.41 370.608 158.002 370.824 157.538 371C157.074 371.16 156.554 371.24 155.978 371.24ZM156.578 369.392C157.138 369.392 157.642 369.288 158.09 369.08C158.538 368.872 158.906 368.584 159.194 368.216C159.498 367.832 159.706 367.376 159.818 366.848V364.904C159.69 364.424 159.466 364.008 159.146 363.656C158.826 363.288 158.442 363.008 157.994 362.816C157.546 362.608 157.05 362.504 156.506 362.504C155.914 362.504 155.37 362.648 154.874 362.936C154.378 363.224 153.978 363.624 153.674 364.136C153.386 364.648 153.242 365.248 153.242 365.936C153.242 366.576 153.394 367.16 153.698 367.688C154.002 368.216 154.41 368.632 154.922 368.936C155.434 369.24 155.986 369.392 156.578 369.392ZM168.697 371.192C167.993 371.192 167.305 371.072 166.633 370.832C165.977 370.576 165.433 370.2 165.001 369.704L165.937 368.408C166.353 368.808 166.777 369.112 167.209 369.32C167.657 369.512 168.097 369.608 168.529 369.608C168.849 369.608 169.145 369.568 169.417 369.488C169.689 369.408 169.905 369.28 170.065 369.104C170.241 368.912 170.329 368.656 170.329 368.336C170.329 367.984 170.209 367.704 169.969 367.496C169.745 367.288 169.449 367.12 169.081 366.992C168.729 366.864 168.353 366.744 167.953 366.632C167.137 366.36 166.513 365.984 166.081 365.504C165.649 365.024 165.433 364.44 165.433 363.752C165.433 363.224 165.561 362.736 165.817 362.288C166.089 361.824 166.481 361.448 166.993 361.16C167.521 360.872 168.169 360.728 168.937 360.728C169.625 360.728 170.241 360.816 170.785 360.992C171.329 361.152 171.841 361.424 172.321 361.808L171.433 363.2C171.145 362.896 170.801 362.672 170.401 362.528C170.001 362.384 169.641 362.304 169.321 362.288C169.049 362.272 168.785 362.312 168.529 362.408C168.289 362.504 168.089 362.64 167.929 362.816C167.769 362.992 167.689 363.2 167.689 363.44C167.689 363.776 167.801 364.048 168.025 364.256C168.249 364.464 168.537 364.632 168.889 364.76C169.257 364.872 169.617 364.992 169.969 365.12C170.465 365.264 170.905 365.456 171.289 365.696C171.673 365.936 171.977 366.232 172.201 366.584C172.441 366.936 172.561 367.376 172.561 367.904C172.561 368.496 172.417 369.048 172.129 369.56C171.857 370.056 171.433 370.456 170.857 370.76C170.297 371.048 169.577 371.192 168.697 371.192ZM197.56 353.648V371H195.256V363.392H186.16V371H183.832V353.648H186.16V361.184H195.256V353.648H197.56ZM201.143 365.936C201.143 364.944 201.375 364.048 201.839 363.248C202.319 362.448 202.975 361.816 203.807 361.352C204.639 360.888 205.583 360.656 206.639 360.656C207.727 360.656 208.679 360.888 209.495 361.352C210.311 361.816 210.943 362.448 211.391 363.248C211.839 364.048 212.062 364.944 212.062 365.936C212.062 366.928 211.839 367.832 211.391 368.648C210.943 369.448 210.303 370.08 209.471 370.544C208.655 371.008 207.703 371.24 206.615 371.24C205.559 371.24 204.615 371.024 203.783 370.592C202.967 370.144 202.319 369.528 201.839 368.744C201.375 367.944 201.143 367.008 201.143 365.936ZM203.375 365.96C203.375 366.6 203.519 367.184 203.807 367.712C204.095 368.224 204.479 368.632 204.959 368.936C205.455 369.24 205.999 369.392 206.591 369.392C207.215 369.392 207.767 369.24 208.247 368.936C208.743 368.632 209.127 368.224 209.399 367.712C209.671 367.184 209.807 366.6 209.807 365.96C209.807 365.32 209.671 364.744 209.399 364.232C209.127 363.704 208.743 363.288 208.247 362.984C207.767 362.664 207.215 362.504 206.591 362.504C205.983 362.504 205.431 362.664 204.935 362.984C204.455 363.304 204.071 363.728 203.783 364.256C203.511 364.768 203.375 365.336 203.375 365.96ZM217.077 361.064L217.293 363.944L217.173 363.56C217.429 362.952 217.797 362.44 218.277 362.024C218.773 361.592 219.285 361.264 219.813 361.04C220.357 360.8 220.829 360.68 221.229 360.68L221.109 362.888C220.357 362.84 219.693 362.984 219.117 363.32C218.557 363.656 218.109 364.104 217.773 364.664C217.453 365.224 217.293 365.824 217.293 366.464V371H215.085V361.064H217.077ZM228.002 371.24C227.074 371.24 226.226 371.04 225.458 370.64C224.706 370.24 224.106 369.656 223.658 368.888C223.226 368.104 223.01 367.152 223.01 366.032C223.01 364.928 223.242 363.976 223.706 363.176C224.17 362.36 224.786 361.736 225.554 361.304C226.338 360.872 227.194 360.656 228.122 360.656C229.05 360.656 229.834 360.872 230.474 361.304C231.114 361.72 231.602 362.216 231.938 362.792L231.794 363.176L232.01 361.064H234.074V371H231.842V368.408L232.082 368.984C232.018 369.144 231.874 369.352 231.65 369.608C231.442 369.848 231.154 370.096 230.786 370.352C230.434 370.608 230.026 370.824 229.562 371C229.098 371.16 228.578 371.24 228.002 371.24ZM228.602 369.392C229.162 369.392 229.666 369.288 230.114 369.08C230.562 368.872 230.93 368.584 231.218 368.216C231.522 367.832 231.73 367.376 231.842 366.848V364.904C231.714 364.424 231.49 364.008 231.17 363.656C230.85 363.288 230.466 363.008 230.018 362.816C229.57 362.608 229.074 362.504 228.53 362.504C227.938 362.504 227.394 362.648 226.898 362.936C226.402 363.224 226.002 363.624 225.698 364.136C225.41 364.648 225.266 365.248 225.266 365.936C225.266 366.576 225.418 367.16 225.722 367.688C226.026 368.216 226.434 368.632 226.946 368.936C227.458 369.24 228.01 369.392 228.602 369.392ZM240.72 371.192C240.016 371.192 239.328 371.072 238.656 370.832C238 370.576 237.456 370.2 237.024 369.704L237.96 368.408C238.376 368.808 238.8 369.112 239.232 369.32C239.68 369.512 240.12 369.608 240.552 369.608C240.872 369.608 241.168 369.568 241.44 369.488C241.712 369.408 241.928 369.28 242.088 369.104C242.264 368.912 242.352 368.656 242.352 368.336C242.352 367.984 242.232 367.704 241.992 367.496C241.768 367.288 241.472 367.12 241.104 366.992C240.752 366.864 240.376 366.744 239.976 366.632C239.16 366.36 238.536 365.984 238.104 365.504C237.672 365.024 237.456 364.44 237.456 363.752C237.456 363.224 237.584 362.736 237.84 362.288C238.112 361.824 238.504 361.448 239.016 361.16C239.544 360.872 240.192 360.728 240.96 360.728C241.648 360.728 242.264 360.816 242.808 360.992C243.352 361.152 243.864 361.424 244.344 361.808L243.456 363.2C243.168 362.896 242.824 362.672 242.424 362.528C242.024 362.384 241.664 362.304 241.344 362.288C241.072 362.272 240.808 362.312 240.552 362.408C240.312 362.504 240.112 362.64 239.952 362.816C239.792 362.992 239.712 363.2 239.712 363.44C239.712 363.776 239.824 364.048 240.048 364.256C240.272 364.464 240.56 364.632 240.912 364.76C241.28 364.872 241.64 364.992 241.992 365.12C242.488 365.264 242.928 365.456 243.312 365.696C243.696 365.936 244 366.232 244.224 366.584C244.464 366.936 244.584 367.376 244.584 367.904C244.584 368.496 244.44 369.048 244.152 369.56C243.88 370.056 243.456 370.456 242.88 370.76C242.32 371.048 241.6 371.192 240.72 371.192Z" fill="white" />
    <path d="M97.1055 287.461C97.1055 287.461 96.5781 288.77 95.5039 291.387C94.4297 294.004 93.1992 297.07 91.8125 300.605C90.4258 304.141 89.1953 307.48 88.1211 310.605C87.0469 313.75 86.5 315.84 86.5 316.875C86.5 318.203 86.9883 319.238 87.6328 319.961C86.3242 320.195 85.1523 320.312 84.0977 320.312C82.9453 320.312 82.0078 320.117 81.2852 319.746C81.2852 320.117 81.5586 321.27 82.1055 322.383C82.6523 323.496 83.4531 324.473 84.4883 324.473C86.3438 324.473 88.5508 324.199 90.8945 323.867C93.6094 323.496 96.4609 323.145 99.2539 323.145C100.055 323.145 100.816 323.301 101.5 323.633C102.184 323.965 102.73 324.297 103.141 324.629C103.551 324.961 103.766 325.117 103.766 325.117C103.766 325.117 103.629 324.043 103.18 322.656C102.945 321.973 102.613 321.27 102.203 320.586C101.344 319.199 100.055 318.125 98.1211 318.125C96.6172 318.125 94.4492 318.555 92.1055 319.082C91.8516 319.141 91.5781 319.18 91.3242 319.238C91.7734 316.523 92.6133 313.477 93.8242 310.098C95.0352 306.738 96.2656 303.535 97.4961 300.508C98.3359 298.418 99.0586 296.621 99.625 295.078C100.191 293.555 100.465 292.5 100.465 291.934C100.465 290.312 99.6641 289.199 98.7852 288.477C97.9062 287.773 97.1055 287.461 97.1055 287.461ZM107.281 302.598C106.891 302.598 106.656 302.598 106.48 302.969C105.641 304.082 104.82 305.488 103.98 307.148C103.141 308.809 102.438 310.508 101.871 312.207C101.285 313.926 100.992 315.352 100.992 316.504C100.992 319.121 102.594 320.02 104.059 320.02C104.859 320.02 105.719 319.609 106.656 318.789C107.594 317.988 108.551 316.953 109.508 315.703C110.465 314.473 111.363 313.164 112.242 311.777C111.539 313.633 111.07 315.469 111.07 316.953C111.07 318.77 111.812 320.02 113.844 320.02C115.152 320.02 116.598 318.867 117.906 317.383C119.801 315.215 121.422 312.48 121.402 312.52L120.875 312.129C120.875 312.129 120.191 312.891 119.293 313.73C118.395 314.57 117.379 315.332 116.695 315.332C116.422 315.312 116.285 315.137 116.285 314.805C116.285 314.395 116.441 313.828 116.734 313.105C117.027 312.383 117.34 311.602 117.711 310.781C118.414 309.277 119 307.871 119.059 307.109V307.051C119.059 306.504 118.863 305.996 118.473 305.527C118.082 305.078 117.633 304.707 117.145 304.414C116.656 304.121 116.246 303.984 115.934 303.984C115.934 303.984 115.543 304.551 114.742 305.703C113.941 306.855 112.984 308.184 111.91 309.648C110.836 311.133 109.801 312.441 108.844 313.594C107.887 314.746 107.242 315.332 106.91 315.332C106.676 315.312 106.559 315.117 106.559 314.707C106.559 313.906 107.008 312.637 107.926 310.879C108.844 309.121 109.938 307.344 111.207 305.527C111.246 305.43 111.266 305.332 111.266 305.234C111.266 304.863 111.031 304.453 110.562 304.043C110.094 303.633 109.547 303.301 108.922 303.008C108.297 302.734 107.75 302.598 107.281 302.598ZM125.094 302.598C125.113 302.578 122.945 303.965 122.945 305.176C122.945 305.566 123.121 305.996 123.453 306.484C122.223 309.141 120.484 312.148 118.199 314.902L119.137 315.625C121.461 312.871 123.297 310.254 124.664 307.734C125.133 308.086 125.523 308.262 125.855 308.262C126.812 308.262 130.816 306.816 130.758 306.836C130.758 306.836 130.25 307.246 129.234 308.047C128.199 308.867 127.047 309.824 125.738 310.918C124.43 312.031 123.277 313.066 122.262 314.043C121.227 315.039 120.719 315.703 120.719 316.035C120.719 316.523 120.992 317.07 121.539 317.695C122.086 318.32 122.691 318.867 123.355 319.316C124.02 319.785 124.527 320.02 124.859 320.02C125.582 320.02 126.52 319.434 127.438 318.867C128.199 318.379 128.883 317.949 129.332 317.949C130.055 317.949 130.27 318.711 130.27 319.414C130.27 319.551 130.27 319.668 130.25 319.785C129.098 320.547 127.75 321.484 126.168 322.598C124.586 323.711 123.16 324.785 121.91 325.801C120.66 326.816 120.035 327.52 120.035 327.91C120.035 328.398 120.27 328.906 120.738 329.434C121.676 330.469 123.277 331.27 124.938 331.27C125.562 331.27 126.422 330.84 127.496 330C128.57 329.141 129.645 328.125 130.719 326.934C131.793 325.742 132.711 324.609 133.473 323.516C134.234 322.402 134.605 321.621 134.605 321.133C134.605 320.488 134.371 319.766 133.883 318.984C133.395 318.203 132.828 317.539 132.223 316.973C131.598 316.406 131.09 316.133 130.719 316.133C130.152 316.133 128.98 316.562 127.906 317.031C126.812 317.52 125.934 317.949 125.934 317.949C125.914 317.949 125.895 317.949 125.895 317.93C125.895 317.793 126.422 317.266 127.477 316.387C128.531 315.508 129.762 314.512 131.168 313.359C132.75 312.09 134.176 310.898 135.484 309.805C136.773 308.711 137.516 307.988 137.73 307.656C137.77 307.559 137.789 307.461 137.789 307.344C137.789 306.934 137.594 306.387 137.184 305.742C136.773 305.098 136.324 304.512 135.875 304.004C135.406 303.516 135.094 303.262 134.938 303.262C134.723 303.262 133.727 303.594 132.457 304.004C131.422 304.336 130.367 304.668 129.312 304.98C128.258 305.293 127.535 305.449 127.125 305.449C126.129 305.449 124.723 304.941 124.723 303.77C124.723 303.477 124.82 303.125 124.996 302.754C125.035 302.715 125.074 302.656 125.094 302.598ZM129.879 320.645C129.566 321.152 129.117 321.816 128.531 322.617C127.926 323.418 127.281 324.238 126.578 325.059C125.875 325.859 125.191 326.562 124.547 327.129C123.902 327.695 123.355 327.988 122.945 327.988C122.828 327.988 122.77 327.949 122.77 327.852C122.77 327.598 123.18 327.031 124.02 326.172C124.859 325.293 125.816 324.355 126.91 323.359C127.984 322.344 128.98 321.445 129.879 320.645ZM155.367 287.461C155.367 287.461 154.996 288.77 154.254 291.367C153.512 293.984 152.672 297.07 151.734 300.605C150.777 304.141 149.938 307.48 149.215 310.605C148.473 313.75 148.102 315.82 148.102 316.855C148.102 321.016 152.73 321.973 152.73 321.973C153.414 321.973 154.508 321.152 156.031 319.473C157.535 317.812 159.215 315.703 161.031 313.125C162.848 310.566 164.586 307.832 166.266 304.961C167.945 302.09 169.352 299.395 170.465 296.836C171.578 294.297 172.125 292.285 172.125 290.82C172.125 290.059 171.402 289.258 170.621 288.574C169.84 287.891 169.117 287.461 169.117 287.461C168.668 289.082 167.672 291.562 166.09 294.941C164.508 298.32 162.633 301.797 160.465 305.352C158.277 308.906 156.051 311.758 153.785 313.887C154.898 309.238 156.148 304.746 157.535 300.41C158.16 298.34 158.688 296.543 159.117 295.039C159.547 293.535 159.762 292.5 159.762 291.934C159.762 291.133 159.547 290.43 159.098 289.863C158.648 289.297 158.121 288.848 157.555 288.477C156.988 288.125 156.48 287.871 156.031 287.695C155.582 287.539 155.367 287.461 155.367 287.461ZM175.836 300.117C176.598 300.117 177.242 299.844 177.789 299.316C178.316 298.789 178.59 298.145 178.59 297.383C178.59 296.621 178.316 295.977 177.789 295.449C177.242 294.922 176.598 294.648 175.836 294.648C175.074 294.648 174.43 294.922 173.902 295.449C173.375 295.977 173.102 296.621 173.102 297.383C173.102 298.145 173.375 298.789 173.902 299.316C174.43 299.844 175.074 300.117 175.836 300.117ZM170.855 302.598C170.465 302.598 170.211 302.598 170.035 302.969C169.488 304.062 168.902 305.449 168.277 307.109C167.633 308.77 167.086 310.469 166.637 312.188C166.168 313.926 165.934 315.352 165.934 316.504C165.934 319.121 167.496 320.02 168.98 320.02C170.289 320.02 171.734 318.867 173.043 317.383C174.938 315.215 176.559 312.48 176.539 312.52L176.012 312.129C176.012 312.129 175.328 312.891 174.43 313.73C173.531 314.57 172.496 315.332 171.852 315.332C171.598 315.312 171.48 315.098 171.48 314.688C171.48 313.887 171.812 312.617 172.477 310.84C173.141 309.062 173.902 307.305 174.762 305.527C174.801 305.43 174.82 305.332 174.82 305.234C174.82 304.863 174.586 304.453 174.137 304.043C173.668 303.633 173.121 303.301 172.496 303.008C171.871 302.734 171.324 302.598 170.855 302.598ZM195.914 291.562C195.27 291.562 194.43 292.344 193.414 293.906C192.379 295.469 191.344 297.441 190.309 299.824C189.273 302.227 188.355 304.727 187.594 307.344C187.613 307.148 187.633 306.973 187.633 306.797C187.633 306.504 187.594 306.23 187.535 305.996C187.242 305.078 186.637 304.277 185.68 303.594C184.723 302.91 183.902 302.578 183.18 302.578C182.203 302.578 181.266 302.969 180.367 303.73C179.469 304.492 178.668 305.488 177.965 306.699C177.262 307.93 176.695 309.238 176.285 310.645C175.875 312.07 175.66 313.418 175.66 314.688C175.66 317.637 176.871 320 179.938 320C181.949 320 184.352 316.914 186.285 313.281C186.148 314.238 186.09 315.137 186.09 315.957C186.09 318.594 187.691 320 189.156 320C189.801 320 190.484 319.746 191.188 319.219C191.891 318.711 192.574 318.086 193.219 317.344C193.863 316.602 194.469 315.859 194.996 315.117C195.523 314.395 195.934 313.77 196.246 313.242C196.559 312.734 196.715 312.48 196.715 312.48L196.188 312.09C196.188 312.09 195.504 312.852 194.586 313.691C193.668 314.531 192.652 315.293 192.008 315.293C191.285 315.293 190.992 314.59 190.992 313.477C190.992 312.031 191.402 310.078 192.223 307.598C193.023 305.137 193.961 302.812 195.016 300.645C196.051 298.477 196.969 296.973 197.75 296.152C197.75 296.797 197.281 298.398 196.344 300.918C195.387 303.457 194.234 305.82 192.848 308.027L193.238 308.477C194.469 307.363 195.582 305.918 196.578 304.16C197.574 302.422 198.395 300.664 199 298.906C199.605 297.148 199.898 295.762 199.898 294.766C199.898 294.473 199.703 294.062 199.293 293.555C198.883 293.047 198.355 292.578 197.75 292.168C197.145 291.758 196.52 291.562 195.914 291.562ZM185.602 305.84C186.129 305.84 186.383 306.387 186.383 307.266C186.383 308.32 186.031 309.766 185.328 311.582C183.746 313.828 182.262 315.059 181.559 315.059C181.266 315.059 181.109 314.863 181.109 314.453V314.434C181.148 313.262 181.441 312.012 181.988 310.703C182.535 309.395 183.16 308.242 183.863 307.285C184.566 306.328 185.152 305.84 185.602 305.84ZM210.172 302.559C209.781 302.559 209.547 302.578 209.371 302.949C208.883 303.906 208.375 305.098 207.809 306.523C207.789 306.328 207.77 306.152 207.73 305.996C207.438 305.078 206.832 304.277 205.875 303.594C204.918 302.91 204.078 302.578 203.355 302.578C202.379 302.578 201.441 302.969 200.543 303.73C199.645 304.492 198.844 305.488 198.16 306.699C197.457 307.93 196.891 309.238 196.48 310.645C196.07 312.051 195.855 313.398 195.855 314.688C195.855 317.637 197.066 320 200.133 320C200.934 320 201.793 319.551 202.691 318.672C203.59 317.793 204.469 316.66 205.328 315.273C205.27 315.703 205.25 316.113 205.25 316.484C205.25 319.102 206.812 320 208.316 320C208.961 320 209.645 319.746 210.348 319.219C211.031 318.711 211.715 318.086 212.379 317.344C213.023 316.602 213.609 315.859 214.137 315.117C214.664 314.395 215.074 313.77 215.387 313.242C215.699 312.734 215.855 312.48 215.855 312.48L215.348 312.09C215.348 312.09 214.664 312.852 213.746 313.691C212.828 314.531 211.812 315.293 211.168 315.293C210.934 315.273 210.816 315.059 210.816 314.648C210.816 313.867 211.148 312.598 211.812 310.82C212.477 309.043 213.238 307.285 214.098 305.508C214.137 305.41 214.156 305.312 214.156 305.215C214.156 304.844 213.922 304.434 213.453 304.023C212.516 303.203 211.168 302.578 210.172 302.559ZM205.797 305.859C206.324 305.859 206.559 306.387 206.559 307.246C206.559 308.301 206.207 309.746 205.504 311.582C203.922 313.828 202.438 315.059 201.734 315.059C201.441 315.059 201.285 314.863 201.285 314.453V314.434C201.324 313.281 201.617 312.031 202.164 310.723C202.711 309.414 203.336 308.262 204.059 307.305C204.762 306.348 205.348 305.859 205.797 305.859Z" fill="#F2CB56" />
    <circle cx="144" cy="145" r="116.5" stroke="#F2CB56" stroke-width="7" />
    <circle cx="144" cy="145" r="90" fill="#3672A6" fill-opacity="0.9" />
    <path fill-rule="evenodd" clip-rule="evenodd" d="M170.095 91.5179C170.095 76.8725 158.223 65 143.577 65C128.932 65 117.059 76.8725 117.059 91.5179V198.482C117.059 213.128 128.932 225 143.577 225C158.223 225 170.095 213.128 170.095 198.482V91.5179ZM133.137 181.254H153.754C153.941 181.254 154.155 183.126 154.395 186.869L154.796 190.559L154.716 190.639H150.866C150.705 190.639 150.572 189.864 150.465 188.313C150.09 186.976 149.636 186.307 149.101 186.307C148.994 186.174 148.646 186.094 148.058 186.067H142.764L149.021 194.008V194.089L141.881 202.752H148.219C149.702 202.752 150.665 202.298 151.106 201.388L152.31 198.26H152.39C154.743 198.688 155.919 198.982 155.919 199.142C154.957 205.48 154.422 208.742 154.315 208.929H133.137L132.977 208.769V206.041L141.881 195.292L132.977 184.142V181.414L133.137 181.254ZM133.859 182.136V183.821L142.924 195.292V195.452L133.859 206.362V208.047H153.593L154.957 199.704L152.871 199.303C152.176 202.191 150.759 203.635 148.62 203.635L146.133 203.715H140.036V203.635L147.978 194.008L140.919 185.184L140.999 185.104H146.293C148.927 185.104 150.371 185.559 150.625 186.468C150.946 186.468 151.24 187.564 151.507 189.757H153.754V189.677L153.112 182.136H133.859ZM134.742 182.858H152.31C152.457 182.858 152.671 184.89 152.951 188.955L152.871 189.035H152.31C152.216 189.035 152.056 188.393 151.828 187.11C151.16 185.345 149.93 184.462 148.138 184.462L147.176 184.382H139.314L146.935 194.008V194.089L138.352 204.437H147.256C150.371 204.437 152.189 203.528 152.711 201.709L153.433 200.105C153.861 200.212 154.074 200.319 154.074 200.426C153.406 205.025 153.005 207.325 152.871 207.325H134.742L134.581 207.164V206.843C134.581 206.563 135.544 205.359 137.469 203.233L143.967 195.292C137.71 187.551 134.581 183.594 134.581 183.42V183.019L134.742 182.858ZM151.082 80.4839H136.096L135.918 80.6685V84.9132C135.918 85.0363 136.007 85.0978 136.184 85.0978V85.1901L135.563 85.2823C130.302 87.3893 127.671 90.9574 127.671 95.9865V97.0015C127.671 99.4315 128.499 101.738 130.154 103.922C131.499 105.722 133.627 106.983 136.539 107.706V107.798C136.125 107.798 135.918 107.859 135.918 107.982V112.135L136.096 112.319H151.082L151.26 112.135V107.982C151.26 107.859 151.023 107.798 150.55 107.798V107.706C151.008 107.706 152.072 107.336 153.742 106.598C157.585 104.215 159.507 101.016 159.507 97.0015V95.8019C159.507 93.1874 158.531 90.6959 156.58 88.3275C154.349 86.3897 152.427 85.3439 150.816 85.1901V85.0978C151.112 85.0978 151.26 85.0363 151.26 84.9132V80.6685L151.082 80.4839ZM136.894 83.9905V81.499H150.284V83.9905H148.865C147.269 83.9905 146.471 84.4211 146.471 85.2823V85.3746L146.56 85.4669C148.363 85.5592 150.491 86.0513 152.944 86.9433C156.669 89.0042 158.531 92.0186 158.531 95.9865V96.8169C158.531 99.8159 157.349 102.4 154.984 104.568C152.427 106.352 149.708 107.244 146.826 107.244L146.471 107.429C146.53 107.921 146.648 108.167 146.826 108.167C146.826 108.598 147.831 108.813 149.841 108.813H150.284V111.304H136.894V108.813H138.401L139.465 108.721C140.352 108.49 140.795 108.059 140.795 107.429L140.53 107.244C138.401 107.244 136.214 106.752 133.967 105.768C130.42 103.63 128.647 100.646 128.647 96.8169V96.171C128.647 93.7411 129.386 91.5264 130.864 89.5271C132.268 87.8353 134.366 86.6357 137.16 85.9283L140.795 85.3746C140.795 84.4518 139.968 83.9905 138.312 83.9905H136.894ZM149.309 82.3295H137.869L137.692 82.514V82.9754L137.869 83.16H138.49C139.377 83.16 140.086 83.3138 140.618 83.6214C141.328 84.052 141.682 84.944 141.682 86.2974C139.451 86.4204 137.795 86.6357 136.716 86.9433C131.869 88.4351 129.445 91.5726 129.445 96.3556V96.6324C129.445 98.1088 129.77 99.5545 130.42 100.969C132.312 104.661 136.036 106.506 141.594 106.506H141.682C141.682 108.598 140.648 109.643 138.579 109.643H137.869L137.692 109.828V110.289L137.869 110.474H149.309L149.486 110.289V109.828L149.309 109.643H148.954C148.245 109.643 147.565 109.551 146.914 109.367C146.027 108.967 145.584 108.106 145.584 106.783V106.506C147.609 106.506 149.678 106.137 151.792 105.399C155.753 103.661 157.733 100.739 157.733 96.6324V96.171C157.733 93.1413 156.521 90.619 154.097 88.6043C151.629 87.0664 148.791 86.2974 145.584 86.2974V86.1128C145.584 84.1442 146.619 83.16 148.688 83.16H149.309L149.486 82.9754V82.514L149.309 82.3295ZM137.958 104.568C135.061 103.199 133.613 100.523 133.613 96.5401C133.613 95.1406 133.82 93.7872 134.233 92.4799C135.386 89.2195 137.84 87.5893 141.594 87.5893V105.214H141.505C140.456 105.214 139.273 104.999 137.958 104.568ZM145.584 105.214V87.5893C146.826 87.5893 147.978 87.8046 149.043 88.2352C151.999 89.4502 153.477 92.0032 153.477 95.8942V96.9092C153.477 98.2319 153.269 99.493 152.856 100.693C151.644 103.707 149.22 105.214 145.584 105.214ZM140.795 88.6043L140.707 88.512C140.204 88.512 139.377 88.6966 138.224 89.0657C135.682 90.3268 134.411 92.7875 134.411 96.4478C134.411 98.1242 134.766 99.7237 135.475 101.246C136.82 103.276 138.505 104.291 140.53 104.291C140.707 104.291 140.795 104.23 140.795 104.107V88.6043ZM151.437 91.0958C149.959 89.3733 148.363 88.512 146.648 88.512C146.471 88.512 146.382 88.5735 146.382 88.6966V104.291C147.358 104.291 148.274 104.076 149.131 103.645C151.496 102.415 152.678 100.2 152.678 97.0015V95.8019C152.678 94.1409 152.264 92.5722 151.437 91.0958ZM139.82 103.184C136.864 102.538 135.386 100.262 135.386 96.3556C135.386 94.8791 135.741 93.4027 136.45 91.9263C137.5 90.4499 138.593 89.7116 139.731 89.7116H139.82V103.184ZM147.358 103.184V89.7116H147.446C147.712 89.7116 148.274 89.8962 149.131 90.2653C150.846 91.3265 151.703 93.3258 151.703 96.2633V96.5401C151.703 98.6779 151.26 100.308 150.373 101.431C149.22 102.6 148.215 103.184 147.358 103.184ZM64 145.089C64 130.443 75.8725 118.571 90.5179 118.571H197.482C212.128 118.571 224 130.443 224 145.089C224 159.734 212.128 171.606 197.482 171.606H90.5179C75.8725 171.606 64 159.734 64 145.089ZM144.741 130H143.433C140.105 130 137.199 130.814 134.714 132.441C130.645 135.275 128.61 138.966 128.61 143.515C128.61 146.421 129.54 149.124 131.401 151.624H128.174L128 151.798V160.518L128.174 160.692H142.736L142.823 160.605L142.125 152.845C142.125 152.205 141.806 151.886 141.166 151.886C138.26 150.839 136.806 148.398 136.806 144.561V143.428C136.806 142.716 136.894 141.844 137.068 140.812C138.347 136.917 140.643 134.97 143.956 134.97C144.668 134.97 145.453 135.086 146.311 135.319C149.624 136.583 151.281 139.402 151.281 143.776V144.736C151.281 146.538 150.961 147.991 150.321 149.095C149.726 150.316 148.36 151.333 146.223 152.147C146.035 152.147 145.744 154.937 145.351 160.518L145.526 160.692H160L160.174 160.518V151.798L160 151.624H156.774C158.576 149.241 159.477 146.625 159.477 143.776V143.079C159.477 140.216 158.46 137.513 156.425 134.97C153.257 131.657 149.362 130 144.741 130ZM129.657 143.864V142.905C129.657 141.553 129.976 140.1 130.616 138.545C133.203 133.488 137.533 130.959 143.608 130.959H144.567C147.633 130.959 150.54 131.802 153.286 133.488C156.774 136.031 158.518 139.286 158.518 143.253V143.602C158.518 145.637 158.053 147.555 157.123 149.357C155.524 152.103 153.402 153.905 150.757 154.763V154.937H154.158L155.291 154.85C156.338 154.85 156.861 154.094 156.861 152.583H159.215V159.733H146.398L146.921 153.019C146.921 152.932 147.153 152.786 147.618 152.583C150.699 151.304 152.24 148.746 152.24 144.91V143.428C152.24 142.425 152.123 141.466 151.891 140.55C150.598 136.191 147.982 134.011 144.044 134.011H143.869C142.852 134.011 141.893 134.214 140.992 134.621C137.504 136.278 135.76 139.417 135.76 144.038C135.76 146.261 136.196 148.18 137.068 149.793C137.853 151.202 139.219 152.22 141.166 152.845L141.689 159.471L141.776 159.733H128.959V152.583H131.313V153.542C131.313 154.472 132.214 154.937 134.016 154.937H137.591V154.763L136.109 154.153C131.808 151.726 129.657 148.296 129.657 143.864ZM144.131 131.744H143.608C141.094 131.744 138.797 132.267 136.719 133.313C132.534 135.769 130.441 139.024 130.441 143.079V143.689C130.441 147.119 131.778 149.909 134.452 152.06C135.615 153.092 137.126 153.876 138.986 154.414V155.722H133.842C132.36 155.722 131.342 155.402 130.79 154.763C130.572 153.891 130.427 153.455 130.354 153.455H129.918L129.744 153.629V158.774L129.918 158.948H140.817C140.585 155.286 140.411 153.455 140.294 153.455C136.748 152.06 134.975 148.95 134.975 144.125C134.975 142.294 135.237 140.637 135.76 139.155C137.475 135.202 140.178 133.226 143.869 133.226H144.218C145.351 133.226 146.398 133.43 147.357 133.836C151.193 135.493 153.112 138.981 153.112 144.3C153.112 148.979 151.368 152.002 147.88 153.368C147.72 153.368 147.517 155.17 147.27 158.774L147.444 158.948H158.256L158.43 158.774V153.629L158.256 153.455H157.733C157.66 153.455 157.515 153.862 157.297 154.676C156.89 155.373 155.902 155.722 154.332 155.722H149.014L149.101 154.501L150.757 153.978C155.408 151.74 157.733 148.281 157.733 143.602C157.733 141.786 157.384 140.129 156.687 138.632C154.245 134.04 150.06 131.744 144.131 131.744ZM132.273 153.717V152.583C133.232 153.455 133.784 153.891 133.929 153.891V153.978H133.842L132.273 153.717ZM155.815 153.455C155.815 153.804 155.35 153.978 154.42 153.978L155.902 152.67L155.815 153.455ZM183.16 131H196.637L196.798 131.16V134.85L196.637 135.011H193.829C193.455 135.011 193.268 135.412 193.268 136.214V142.311H201.29V136.374L201.21 135.171L200.488 135.011H197.921L197.76 134.85V131.16L197.921 131H211.397L211.558 131.16V134.85L211.397 135.011H208.67C208.295 135.011 208.108 135.412 208.108 136.214V153.14C208.108 154.156 208.242 154.664 208.509 154.664L209.632 154.744H211.397L211.558 154.905V158.515L211.397 158.675H197.921L197.76 158.515V154.905L197.921 154.744H199.766C200.728 154.744 201.21 154.584 201.21 154.263L201.29 152.819V146.963H193.268V152.819C193.268 154.049 193.402 154.664 193.669 154.664L194.792 154.744H196.637L196.798 154.905V158.515L196.637 158.675H183.16L183 158.515V154.905L183.16 154.744H184.925C185.888 154.744 186.369 154.584 186.369 154.263L186.449 153.3V135.973C186.449 135.332 186.262 135.011 185.888 135.011H183.16L183 134.85V131.16L183.16 131ZM183.882 131.882V134.048H185.005C186.556 134.048 187.332 134.556 187.332 135.572V153.3C187.332 154.691 187.064 155.386 186.53 155.386C186.53 155.506 186.129 155.587 185.326 155.627H183.882V157.793H195.915V155.627H194.632C193.188 155.627 192.466 155.172 192.466 154.263L192.386 152.979V146.241L192.546 146.081H202.012L202.172 146.241V152.979C202.172 154.691 201.771 155.546 200.969 155.546L199.926 155.627H198.723V157.793H210.675V155.627H209.472C208.028 155.627 207.306 155.172 207.306 154.263L207.226 153.3V136.294C207.226 134.85 207.654 134.128 208.509 134.128L209.472 134.048H210.675V131.882H198.723V134.048H199.846C201.343 134.048 202.092 134.503 202.092 135.412L202.172 136.294V143.032L202.012 143.193H192.546L192.386 143.032V136.695C192.386 134.984 192.787 134.128 193.589 134.128L194.792 134.048H195.915V131.882H183.882ZM184.765 132.604H194.953L195.113 132.765V133.166L194.953 133.326H194.311C192.653 133.46 191.824 133.968 191.824 134.85L191.664 136.214V143.915H202.894V136.054C202.841 134.61 202.573 133.888 202.092 133.888C201.597 133.513 200.955 133.326 200.167 133.326H199.605L199.445 133.166V132.765L199.605 132.604H209.793L209.953 132.765V133.166L209.793 133.326H209.311C207.894 133.326 207.012 133.754 206.664 134.61C206.504 135.452 206.424 136.789 206.424 138.621V151.054C206.424 154.209 206.691 155.787 207.226 155.787C207.6 156.161 208.295 156.349 209.311 156.349H209.793L209.953 156.509V156.91L209.793 157.071H199.605L199.445 156.91V156.509L199.605 156.349H200.086C201.905 156.349 202.814 155.627 202.814 154.183L202.894 153.461V145.359H191.664V153.461C191.664 155.172 192.065 156.028 192.867 156.028C192.867 156.188 193.402 156.295 194.471 156.349H194.953L195.113 156.509V156.91L194.953 157.071H184.765L184.604 156.91V156.509L184.765 156.349H185.487C187.091 156.215 187.893 155.707 187.893 154.825C188.054 154.825 188.134 153.541 188.134 150.974V138.54C188.134 135.546 187.92 134.048 187.492 134.048C187.051 133.567 186.276 133.326 185.166 133.326H184.765L184.604 133.166V132.765L184.765 132.604ZM82.7254 131.25L82.6451 131.33L81.9232 140.555H82.0034L82.0836 140.635H85.7736C86.1212 138.79 86.4154 137.56 86.656 136.945C86.656 136.304 87.886 135.983 90.346 135.983H94.0361L84.2495 149.941C81.3616 153.911 79.9177 156.024 79.9177 156.278V158.765L80.0782 158.925H102.7C102.873 158.925 103.462 155.796 104.464 149.539C104.344 149.446 103.141 149.205 100.855 148.817L100.052 151.304C99.4776 153.176 98.3812 154.112 96.7635 154.112H89.5439V154.032L105.347 131.41V131.25H82.7254ZM82.8858 139.753L83.5275 132.132H103.742C93.2473 147.227 87.9261 154.821 87.7791 154.914L87.9395 155.075H95.48C97.4052 155.075 98.6887 154.78 99.3304 154.192C100.159 153.417 100.855 151.999 101.416 149.941L103.502 150.181L103.101 152.106C102.499 156.064 102.125 158.043 101.978 158.043H80.8001V156.358L95.6404 135.18V135.1H89.7845L88.0197 135.18C86.3485 135.18 85.3592 136.705 85.0517 139.753H82.8858ZM102.298 133.015L102.138 132.854H84.2495L83.688 138.951H83.7682L83.8484 139.031H84.4099L85.0517 136.544C85.4126 135.1 86.8833 134.378 89.4636 134.378H97.0843V134.459L81.5221 156.599V157.16L81.6825 157.321H101.416L102.619 150.823H102.539L102.459 150.743H101.897C101.897 151.211 101.47 152.227 100.614 153.791C99.9187 155.128 98.3678 155.796 95.9613 155.796H86.3351L102.298 133.015Z" fill="white" fill-opacity="0.9" />
    <path d="M137.329 40V36H141.849V16H137.329V12H150.689V16H146.169V36H150.689V40H137.329Z" fill="#1F1013" />
    <path d="M137.329 40H135.329V42H137.329V40ZM137.329 36V34H135.329V36H137.329ZM141.849 36V38H143.849V36H141.849ZM141.849 16H143.849V14H141.849V16ZM137.329 16H135.329V18H137.329V16ZM137.329 12V10H135.329V12H137.329ZM150.689 12H152.689V10H150.689V12ZM150.689 16V18H152.689V16H150.689ZM146.169 16V14H144.169V16H146.169ZM146.169 36H144.169V38H146.169V36ZM150.689 36H152.689V34H150.689V36ZM150.689 40V42H152.689V40H150.689ZM139.329 40V36H135.329V40H139.329ZM137.329 38H141.849V34H137.329V38ZM143.849 36V16H139.849V36H143.849ZM141.849 14H137.329V18H141.849V14ZM139.329 16V12H135.329V16H139.329ZM137.329 14H150.689V10H137.329V14ZM148.689 12V16H152.689V12H148.689ZM150.689 14H146.169V18H150.689V14ZM144.169 16V36H148.169V16H144.169ZM146.169 38H150.689V34H146.169V38ZM148.689 36V40H152.689V36H148.689ZM150.689 38H137.329V42H150.689V38Z" fill="white" />
    <path d="M238.228 160V156H242.748V136H238.228V132H251.588V136H247.068V156H251.588V160H238.228ZM257.329 160V156H261.849V136H257.329V132H270.689V136H266.169V156H270.689V160H257.329ZM276.431 160V156H280.951V136H276.431V132H289.791V136H285.271V156H289.791V160H276.431Z" fill="#1F1013" />
    <path d="M238.228 160H236.228V162H238.228V160ZM238.228 156V154H236.228V156H238.228ZM242.748 156V158H244.748V156H242.748ZM242.748 136H244.748V134H242.748V136ZM238.228 136H236.228V138H238.228V136ZM238.228 132V130H236.228V132H238.228ZM251.588 132H253.588V130H251.588V132ZM251.588 136V138H253.588V136H251.588ZM247.068 136V134H245.068V136H247.068ZM247.068 156H245.068V158H247.068V156ZM251.588 156H253.588V154H251.588V156ZM251.588 160V162H253.588V160H251.588ZM240.228 160V156H236.228V160H240.228ZM238.228 158H242.748V154H238.228V158ZM244.748 156V136H240.748V156H244.748ZM242.748 134H238.228V138H242.748V134ZM240.228 136V132H236.228V136H240.228ZM238.228 134H251.588V130H238.228V134ZM249.588 132V136H253.588V132H249.588ZM251.588 134H247.068V138H251.588V134ZM245.068 136V156H249.068V136H245.068ZM247.068 158H251.588V154H247.068V158ZM249.588 156V160H253.588V156H249.588ZM251.588 158H238.228V162H251.588V158ZM257.329 160H255.329V162H257.329V160ZM257.329 156V154H255.329V156H257.329ZM261.849 156V158H263.849V156H261.849ZM261.849 136H263.849V134H261.849V136ZM257.329 136H255.329V138H257.329V136ZM257.329 132V130H255.329V132H257.329ZM270.689 132H272.689V130H270.689V132ZM270.689 136V138H272.689V136H270.689ZM266.169 136V134H264.169V136H266.169ZM266.169 156H264.169V158H266.169V156ZM270.689 156H272.689V154H270.689V156ZM270.689 160V162H272.689V160H270.689ZM259.329 160V156H255.329V160H259.329ZM257.329 158H261.849V154H257.329V158ZM263.849 156V136H259.849V156H263.849ZM261.849 134H257.329V138H261.849V134ZM259.329 136V132H255.329V136H259.329ZM257.329 134H270.689V130H257.329V134ZM268.689 132V136H272.689V132H268.689ZM270.689 134H266.169V138H270.689V134ZM264.169 136V156H268.169V136H264.169ZM266.169 158H270.689V154H266.169V158ZM268.689 156V160H272.689V156H268.689ZM270.689 158H257.329V162H270.689V158ZM276.431 160H274.431V162H276.431V160ZM276.431 156V154H274.431V156H276.431ZM280.951 156V158H282.951V156H280.951ZM280.951 136H282.951V134H280.951V136ZM276.431 136H274.431V138H276.431V136ZM276.431 132V130H274.431V132H276.431ZM289.791 132H291.791V130H289.791V132ZM289.791 136V138H291.791V136H289.791ZM285.271 136V134H283.271V136H285.271ZM285.271 156H283.271V158H285.271V156ZM289.791 156H291.791V154H289.791V156ZM289.791 160V162H291.791V160H289.791ZM278.431 160V156H274.431V160H278.431ZM276.431 158H280.951V154H276.431V158ZM282.951 156V136H278.951V156H282.951ZM280.951 134H276.431V138H280.951V134ZM278.431 136V132H274.431V136H278.431ZM276.431 134H289.791V130H276.431V134ZM287.791 132V136H291.791V132H287.791ZM289.791 134H285.271V138H289.791V134ZM283.271 136V156H287.271V136H283.271ZM285.271 158H289.791V154H285.271V158ZM287.791 156V160H291.791V156H287.791ZM289.791 158H276.431V162H289.791V158Z" fill="white" />
    <path d="M132.312 280L121.112 252H126.032L132.712 269C133.032 269.827 133.312 270.573 133.552 271.24C133.819 271.907 134.046 272.52 134.232 273.08C134.419 273.613 134.592 274.12 134.752 274.6C134.912 275.08 135.072 275.56 135.232 276.04L134.192 276.08C134.379 275.44 134.579 274.773 134.792 274.08C135.006 273.387 135.246 272.627 135.512 271.8C135.806 270.973 136.152 270.04 136.552 269L142.752 252H147.792L136.512 280H132.312ZM151.626 280V276H156.146V256H151.626V252H164.986V256H160.466V276H164.986V280H151.626Z" fill="#1F1013" />
    <path d="M132.312 280L130.455 280.743L130.958 282H132.312V280ZM121.112 252V250H118.158L119.255 252.743L121.112 252ZM126.032 252L127.894 251.269L127.395 250H126.032V252ZM132.712 269L134.578 268.278L134.574 268.269L132.712 269ZM133.552 271.24L131.671 271.917L131.682 271.95L131.695 271.983L133.552 271.24ZM134.232 273.08L132.335 273.712L132.34 273.727L132.345 273.741L134.232 273.08ZM134.752 274.6L132.855 275.232L132.855 275.232L134.752 274.6ZM135.232 276.04L135.309 278.039L137.973 277.936L137.13 275.408L135.232 276.04ZM134.192 276.08L132.272 275.52L131.495 278.185L134.269 278.079L134.192 276.08ZM134.792 274.08L136.704 274.668V274.668L134.792 274.08ZM135.512 271.8L133.627 271.131L133.618 271.158L133.609 271.186L135.512 271.8ZM136.552 269L138.419 269.718L138.425 269.702L138.431 269.685L136.552 269ZM142.752 252V250H141.353L140.873 251.315L142.752 252ZM147.792 252L149.647 252.747L150.754 250H147.792V252ZM136.512 280V282H137.863L138.367 280.747L136.512 280ZM134.169 279.257L122.969 251.257L119.255 252.743L130.455 280.743L134.169 279.257ZM121.112 254H126.032V250H121.112V254ZM124.171 252.731L130.851 269.731L134.574 268.269L127.894 251.269L124.171 252.731ZM130.847 269.722C131.163 270.537 131.437 271.269 131.671 271.917L135.434 270.563C135.188 269.878 134.902 269.116 134.577 268.278L130.847 269.722ZM131.695 271.983C131.95 272.621 132.163 273.197 132.335 273.712L136.13 272.448C135.928 271.843 135.688 271.193 135.409 270.497L131.695 271.983ZM132.345 273.741C132.528 274.266 132.698 274.763 132.855 275.232L136.65 273.968C136.486 273.477 136.31 272.961 136.12 272.419L132.345 273.741ZM132.855 275.232C133.015 275.712 133.175 276.192 133.335 276.672L137.13 275.408C136.97 274.928 136.81 274.448 136.65 273.968L132.855 275.232ZM135.155 274.041L134.115 274.081L134.269 278.079L135.309 278.039L135.155 274.041ZM136.112 276.64C136.296 276.01 136.493 275.353 136.704 274.668L132.881 273.492C132.665 274.194 132.462 274.87 132.272 275.52L136.112 276.64ZM136.704 274.668C136.914 273.985 137.151 273.234 137.416 272.414L133.609 271.186C133.34 272.02 133.097 272.788 132.881 273.492L136.704 274.668ZM137.397 272.469C137.683 271.662 138.024 270.746 138.419 269.718L134.686 268.282C134.281 269.334 133.928 270.284 133.627 271.131L137.397 272.469ZM138.431 269.685L144.631 252.685L140.873 251.315L134.673 268.315L138.431 269.685ZM142.752 254H147.792V250H142.752V254ZM145.937 251.253L134.657 279.253L138.367 280.747L149.647 252.747L145.937 251.253ZM136.512 278H132.312V282H136.512V278ZM151.626 280H149.626V282H151.626V280ZM151.626 276V274H149.626V276H151.626ZM156.146 276V278H158.146V276H156.146ZM156.146 256H158.146V254H156.146V256ZM151.626 256H149.626V258H151.626V256ZM151.626 252V250H149.626V252H151.626ZM164.986 252H166.986V250H164.986V252ZM164.986 256V258H166.986V256H164.986ZM160.466 256V254H158.466V256H160.466ZM160.466 276H158.466V278H160.466V276ZM164.986 276H166.986V274H164.986V276ZM164.986 280V282H166.986V280H164.986ZM153.626 280V276H149.626V280H153.626ZM151.626 278H156.146V274H151.626V278ZM158.146 276V256H154.146V276H158.146ZM156.146 254H151.626V258H156.146V254ZM153.626 256V252H149.626V256H153.626ZM151.626 254H164.986V250H151.626V254ZM162.986 252V256H166.986V252H162.986ZM164.986 254H160.466V258H164.986V254ZM158.466 256V276H162.466V256H158.466ZM160.466 278H164.986V274H160.466V278ZM162.986 276V280H166.986V276H162.986ZM164.986 278H151.626V282H164.986V278Z" fill="white" />
    <path d="M3.13781 160V156H7.65781V136H3.13781V132H16.4978V136H11.9778V156H16.4978V160H3.13781ZM40.3194 160L31.6394 147.44L20.5194 132H25.9994L34.4794 144.4L45.7994 160H40.3194ZM20.3194 160L30.9994 144.76L33.6794 147.92L25.3994 160H20.3194ZM35.1194 147L32.4794 143.96L40.3194 132H45.3994L35.1194 147Z" fill="#1F1013" />
    <path d="M3.13781 160H1.13781V162H3.13781V160ZM3.13781 156V154H1.13781V156H3.13781ZM7.65781 156V158H9.65781V156H7.65781ZM7.65781 136H9.65781V134H7.65781V136ZM3.13781 136H1.13781V138H3.13781V136ZM3.13781 132V130H1.13781V132H3.13781ZM16.4978 132H18.4978V130H16.4978V132ZM16.4978 136V138H18.4978V136H16.4978ZM11.9778 136V134H9.97781V136H11.9778ZM11.9778 156H9.97781V158H11.9778V156ZM16.4978 156H18.4978V154H16.4978V156ZM16.4978 160V162H18.4978V160H16.4978ZM5.13781 160V156H1.13781V160H5.13781ZM3.13781 158H7.65781V154H3.13781V158ZM9.65781 156V136H5.65781V156H9.65781ZM7.65781 134H3.13781V138H7.65781V134ZM5.13781 136V132H1.13781V136H5.13781ZM3.13781 134H16.4978V130H3.13781V134ZM14.4978 132V136H18.4978V132H14.4978ZM16.4978 134H11.9778V138H16.4978V134ZM9.97781 136V156H13.9778V136H9.97781ZM11.9778 158H16.4978V154H11.9778V158ZM14.4978 156V160H18.4978V156H14.4978ZM16.4978 158H3.13781V162H16.4978V158ZM40.3194 160L38.674 161.137L39.2704 162H40.3194V160ZM31.6394 147.44L33.2847 146.303L33.2736 146.287L33.2623 146.271L31.6394 147.44ZM20.5194 132V130H16.6143L18.8965 133.169L20.5194 132ZM25.9994 132L27.6503 130.871L27.0546 130H25.9994V132ZM34.4794 144.4L32.8285 145.529L32.8443 145.552L32.8606 145.575L34.4794 144.4ZM45.7994 160V162H49.7217L47.4181 158.825L45.7994 160ZM20.3194 160L18.6815 158.852L16.4756 162H20.3194V160ZM30.9994 144.76L32.5247 143.466L30.8486 141.49L29.3615 143.612L30.9994 144.76ZM33.6794 147.92L35.3291 149.051L36.1925 147.791L35.2047 146.626L33.6794 147.92ZM25.3994 160V162H26.4532L27.0491 161.131L25.3994 160ZM35.1194 147L33.6093 148.311L35.3062 150.265L36.7691 148.131L35.1194 147ZM32.4794 143.96L30.8067 142.864L29.9772 144.129L30.9693 145.271L32.4794 143.96ZM40.3194 132V130H39.239L38.6467 130.904L40.3194 132ZM45.3994 132L47.0491 133.131L49.1947 130H45.3994V132ZM41.9647 158.863L33.2847 146.303L29.994 148.577L38.674 161.137L41.9647 158.863ZM33.2623 146.271L22.1423 130.831L18.8965 133.169L30.0165 148.609L33.2623 146.271ZM20.5194 134H25.9994V130H20.5194V134ZM24.3485 133.129L32.8285 145.529L36.1303 143.271L27.6503 130.871L24.3485 133.129ZM32.8606 145.575L44.1806 161.175L47.4181 158.825L36.0981 143.225L32.8606 145.575ZM45.7994 158H40.3194V162H45.7994V158ZM21.9572 161.148L32.6372 145.908L29.3615 143.612L18.6815 158.852L21.9572 161.148ZM29.4741 146.054L32.1541 149.214L35.2047 146.626L32.5247 143.466L29.4741 146.054ZM32.0297 146.789L23.7497 158.869L27.0491 161.131L35.3291 149.051L32.0297 146.789ZM25.3994 158H20.3194V162H25.3994V158ZM36.6294 145.689L33.9894 142.649L30.9693 145.271L33.6093 148.311L36.6294 145.689ZM34.152 145.056L41.992 133.096L38.6467 130.904L30.8067 142.864L34.152 145.056ZM40.3194 134H45.3994V130H40.3194V134ZM43.7496 130.869L33.4696 145.869L36.7691 148.131L47.0491 133.131L43.7496 130.869Z" fill="white" />
</svg>
