<svg width="452" height="708" viewBox="0 0 452 708" fill="none" xmlns="http://www.w3.org/2000/svg">
<g opacity="0.05">
<path d="M351.097 354.422C351.097 422.858 295.596 478.338 227.131 478.338C158.666 478.338 103.165 422.858 103.165 354.422C103.165 285.985 158.666 230.506 227.131 230.506C295.596 230.506 351.097 285.985 351.097 354.422Z" fill="#D9D9D9" stroke="white" stroke-width="2"/>
<path d="M118.008 231.004L118.008 231C117.857 229.49 117.6 228.247 116.949 226.853C116.289 225.44 115.202 223.824 113.324 221.615C109.553 217.18 102.766 210.547 90.3461 198.602C78.0064 186.737 71.1374 180.263 66.7628 176.826C64.5771 175.108 63.0825 174.205 61.8926 173.756C60.754 173.326 59.8541 173.295 58.8001 173.434C55.2796 174.026 51.9279 176.095 49.4492 178.912C46.9645 181.735 45.4328 185.222 45.4328 188.56C45.4328 189.908 45.5534 191.005 46.056 192.272C46.5686 193.563 47.5018 195.088 49.2223 197.236C52.675 201.547 59.1049 208.137 71.05 220.082C82.4373 231.47 89.0351 237.908 93.5124 241.603C97.9357 245.254 100.175 246.132 102.841 246.495C111.214 247.214 118.891 239.531 118.008 231.004Z" fill="#0B0F1B" stroke="white" stroke-width="2"/>
<path d="M61.653 345.442C64.6548 349.076 65.9187 353.499 65.1287 358.713C64.0228 366.138 63.8648 366.296 55.8074 368.666L61.653 345.442ZM61.653 345.442C57.3873 340.228 53.7536 339.754 22.788 339.754L61.653 345.442ZM55.4912 367.717L55.5082 367.712L55.5253 367.707C57.5537 367.11 59.0247 366.67 60.1376 366.226C61.2432 365.786 61.8977 365.379 62.3454 364.901C62.7846 364.433 63.1009 363.815 63.3734 362.807C63.6514 361.778 63.8606 360.439 64.1396 358.566L64.14 358.563C64.8892 353.619 63.695 349.484 60.882 346.079L60.879 346.075C59.8552 344.824 58.9236 343.923 57.6561 343.231C56.3759 342.533 54.6833 342.009 52.0895 341.633C46.8659 340.875 38.3029 340.754 22.788 340.754V340.754L22.7796 340.754C13.4013 340.676 4.30478 340.951 -2.77352 341.463C-6.31441 341.718 -9.33588 342.032 -11.6289 342.387C-12.7764 342.564 -13.7259 342.75 -14.4597 342.939C-15.2218 343.135 -15.658 343.314 -15.8497 343.438L-15.8561 343.442C-17.4732 344.471 -18.6943 345.699 -19.5917 347.279C-20.4943 348.867 -21.0975 350.86 -21.403 353.455C-21.7925 356.962 -21.6803 359.594 -20.8728 361.618C-20.0886 363.584 -18.5983 365.098 -15.9315 366.269C-13.2248 367.459 -9.3572 368.271 -3.92458 368.809C1.49385 369.345 8.39004 369.602 17.1119 369.72C25.547 369.799 34.1363 369.641 41.1431 369.287C44.6475 369.11 47.7472 368.884 50.2295 368.615C52.7401 368.343 54.5381 368.035 55.4912 367.717Z" fill="#0B0F1B" stroke="white" stroke-width="2"/>
<path d="M212.111 152.376V152.381C212.111 162.727 212.219 170.829 212.588 177.166C212.957 183.517 213.584 188.026 214.592 191.221C215.593 194.393 216.936 196.168 218.683 197.197C220.473 198.251 222.844 198.619 226.12 198.619C229.395 198.619 231.765 198.251 233.554 197.193C235.301 196.16 236.645 194.376 237.646 191.183C238.655 187.968 239.282 183.428 239.651 177.033C240.02 170.651 240.128 162.49 240.128 152.065C240.128 135.779 239.93 126.003 239.226 119.79C238.525 113.597 237.341 111.143 235.524 109.325C232.695 106.497 229.356 105.16 226.037 105.214C222.715 105.269 219.321 106.72 216.399 109.641C214.754 111.286 213.6 113.838 212.915 120.16C212.23 126.474 212.032 136.332 212.111 152.376Z" fill="#0B0F1B" stroke="white" stroke-width="2"/>
<path d="M117.928 290.926L117.925 290.932C91.1197 339.193 97.1288 395.944 133.241 436.47C209.089 521.459 350.814 467.407 350.634 353.427L350.634 353.425C350.615 256.01 245.464 197.152 160.458 247.136L160.453 247.139C153.011 251.447 144.463 258.568 136.715 266.553C128.968 274.537 122.081 283.323 117.928 290.926ZM211.322 448.15L211.322 448.15L211.31 448.148L203.999 446.875L202.102 446.545L203.464 445.183L217.446 431.2C233.381 415.266 243.121 398.27 247.202 379.416C255.54 340.844 241.675 299.898 210.966 274.227L210.959 274.222L198.243 263.412L196.786 262.174L198.635 261.684L206.422 259.619L206.427 259.618C210.85 258.472 220.962 257.681 229.125 258.161C237.352 258.327 251.267 261.052 259.938 264.264C267.251 266.809 271.613 268.554 276.082 271.636C280.522 274.698 285.039 279.061 292.732 286.753C300.425 294.446 304.787 298.963 307.85 303.404C310.932 307.874 312.677 312.236 315.223 319.551C323.249 341.696 323.412 362.745 315.877 385.044C313.024 393.608 311.32 398.341 308.277 402.937C305.25 407.509 300.915 411.916 292.916 419.915C285.068 427.763 280.512 432.165 275.992 435.266C271.444 438.386 266.963 440.169 259.335 442.869C243.309 448.636 226.292 450.567 211.322 448.15Z" fill="#0B0F1B" stroke="white" stroke-width="2"/>
<path d="M90.346 510.292C102.766 498.347 109.553 491.714 113.324 487.279C115.202 485.07 116.289 483.454 116.949 482.041C117.6 480.647 117.857 479.404 118.008 477.894L118.008 477.891C118.891 469.363 111.214 461.68 102.841 462.399C100.175 462.762 97.9356 463.64 93.5123 467.291C89.035 470.986 82.4373 477.424 71.0499 488.812C59.1048 500.757 52.675 507.347 49.2222 511.658C47.5018 513.806 46.5685 515.331 46.0559 516.623C45.5533 517.889 45.4328 518.986 45.4328 520.334C45.4328 523.672 46.9645 527.159 49.4492 529.982C51.9278 532.799 55.2795 534.869 58.8 535.46C59.854 535.599 60.7539 535.568 61.8925 535.138C63.0824 534.689 64.5771 533.786 66.7627 532.068C71.1373 528.631 78.0063 522.157 90.346 510.292ZM90.346 510.292L91.0392 511.013L90.346 510.292Z" fill="#0B0F1B" stroke="white" stroke-width="2"/>
<path d="M212.374 594.115L212.38 594.13L212.384 594.146C214.032 599.686 217.77 603.07 222.029 604.103C226.293 605.138 231.237 603.855 235.365 599.727C237.354 597.738 238.567 595.386 239.265 589.262C239.968 583.09 240.128 573.279 240.128 556.514C240.128 546.167 240.019 538.066 239.65 531.728C239.281 525.378 238.654 520.868 237.646 517.673C236.645 514.502 235.302 512.726 233.555 511.697C231.765 510.643 229.394 510.275 226.119 510.275C222.863 510.275 220.425 510.687 218.537 511.763C216.681 512.821 215.228 514.597 214.1 517.605C212.963 520.638 212.182 524.856 211.651 530.694C211.122 536.521 210.846 543.897 210.688 553.213C210.53 562.675 210.648 572.016 210.964 579.459C211.121 583.181 211.327 586.42 211.572 588.958C211.82 591.534 212.1 593.29 212.374 594.115Z" fill="#0B0F1B" stroke="white" stroke-width="2"/>
<path d="M333.262 230.37L333.262 230.367C333.44 228.86 333.719 227.621 334.394 226.239C335.078 224.837 336.193 223.241 338.11 221.065C341.957 216.696 348.86 210.183 361.486 198.456C374.031 186.808 381.012 180.455 385.445 177.095C387.661 175.416 389.171 174.539 390.368 174.11C391.514 173.7 392.415 173.685 393.466 173.843C396.976 174.496 400.291 176.623 402.72 179.483C405.155 182.349 406.626 185.862 406.567 189.2C406.544 190.548 406.404 191.642 405.88 192.9C405.344 194.182 404.385 195.691 402.627 197.808C399.1 202.059 392.556 208.535 380.404 220.27C368.82 231.457 362.111 237.779 357.569 241.396C353.083 244.969 350.828 245.807 348.157 246.124C339.772 246.697 332.231 238.881 333.262 230.37Z" fill="#0B0F1B" stroke="white" stroke-width="2"/>
<path d="M390.158 344.743C387.093 348.324 385.752 352.724 386.451 357.951C387.427 365.395 387.582 365.555 395.597 368.065L390.158 344.743ZM390.158 344.743C394.514 339.604 398.155 339.194 429.116 339.734L390.158 344.743ZM395.93 367.122L395.913 367.116L395.896 367.111C393.878 366.479 392.415 366.013 391.31 365.55C390.212 365.091 389.565 364.673 389.126 364.187C388.695 363.711 388.389 363.088 388.135 362.075C387.875 361.042 387.689 359.699 387.442 357.821L387.442 357.819C386.779 352.862 388.046 348.749 390.917 345.393L390.921 345.389C391.966 344.156 392.913 343.272 394.193 342.602C395.485 341.926 397.186 341.432 399.786 341.101C405.022 340.435 413.586 340.463 429.099 340.734L429.099 340.734L429.107 340.734C438.485 340.819 447.576 341.254 454.644 341.889C458.18 342.206 461.195 342.572 463.482 342.967C464.626 343.164 465.572 343.366 466.303 343.568C467.061 343.778 467.494 343.964 467.684 344.091L467.69 344.096C469.289 345.153 470.488 346.402 471.358 347.997C472.233 349.601 472.801 351.605 473.061 354.204C473.389 357.718 473.231 360.347 472.389 362.357C471.57 364.309 470.054 365.796 467.367 366.921C464.64 368.063 460.759 368.808 455.318 369.251C449.891 369.692 442.991 369.828 434.269 369.795C425.833 369.726 417.248 369.418 410.248 368.942C406.748 368.704 403.652 368.424 401.175 368.112C398.67 367.796 396.877 367.457 395.93 367.122Z" fill="#0B0F1B" stroke="white" stroke-width="2"/>
<path d="M239.515 152.62L239.515 152.625C239.334 162.97 239.084 171.068 238.605 177.399C238.125 183.742 237.419 188.24 236.356 191.417C235.3 194.57 233.926 196.322 232.161 197.32C230.353 198.343 227.976 198.669 224.701 198.612C221.426 198.555 219.062 198.145 217.292 197.057C215.564 195.993 214.251 194.186 213.306 190.976C212.353 187.744 211.806 183.194 211.548 176.793C211.291 170.406 211.325 162.244 211.507 151.82C211.791 135.536 212.16 125.766 212.972 119.566C213.781 113.386 215.008 110.953 216.857 109.168C219.734 106.389 223.096 105.11 226.413 105.223C229.734 105.335 233.103 106.845 235.972 109.817C237.589 111.491 238.699 114.062 239.273 120.395C239.847 126.72 239.874 136.58 239.515 152.62Z" fill="#0B0F1B" stroke="white" stroke-width="2"/>
<path d="M361.076 510.143C348.867 497.983 342.196 491.233 338.504 486.732C336.664 484.49 335.605 482.856 334.97 481.432C334.344 480.027 334.109 478.779 333.984 477.267L333.984 477.263C333.251 468.722 341.06 461.174 349.419 462.039C352.078 462.449 354.302 463.366 358.661 467.093C363.073 470.866 369.558 477.418 380.744 489.003C392.479 501.154 398.793 507.855 402.17 512.226C403.853 514.404 404.759 515.945 405.249 517.245C405.73 518.52 405.831 519.619 405.807 520.967C405.749 524.305 404.157 527.764 401.623 530.544C399.096 533.317 395.709 535.327 392.178 535.857C391.122 535.978 390.223 535.932 389.092 535.482C387.91 535.012 386.431 534.083 384.276 532.327C379.962 528.814 373.207 522.222 361.076 510.143ZM361.076 510.143L360.371 510.851L361.076 510.143Z" fill="#0B0F1B" stroke="white" stroke-width="2"/>
<path d="M238.598 594.34L238.593 594.356L238.588 594.372C236.844 599.882 233.047 603.201 228.77 604.159C224.489 605.119 219.568 603.75 215.513 599.551C213.559 597.527 212.387 595.154 211.796 589.019C211.201 582.836 211.213 573.024 211.505 556.261C211.686 545.916 211.936 537.818 212.415 531.488C212.895 525.144 213.601 520.647 214.664 517.47C215.72 514.316 217.094 512.564 218.859 511.566C220.667 510.544 223.044 510.217 226.319 510.274C229.575 510.331 232.005 510.785 233.874 511.894C235.71 512.984 237.133 514.785 238.208 517.812C239.292 520.864 239.999 525.096 240.428 530.942C240.856 536.778 241.003 544.157 240.998 553.474C240.991 562.938 240.709 572.275 240.265 579.711C240.042 583.43 239.779 586.665 239.49 589.199C239.197 591.77 238.887 593.521 238.598 594.34Z" fill="#0B0F1B" stroke="white" stroke-width="2"/>
</g>
</svg>
