<svg width="32" height="32" viewBox="0 0 32 32" fill="none" xmlns="http://www.w3.org/2000/svg">
<path d="M6.34375 2.0125C6.275 2.05 6.2 2.1125 6.175 2.15C6.15 2.1875 6.125 3.25 6.125 4.50625C6.125 6.64375 6.13125 6.8 6.2375 6.89375C6.4125 7.05625 6.65625 7.025 6.8125 6.83125C6.9375 6.66875 6.94375 6.625 6.925 4.43125C6.90625 2.5375 6.89375 2.175 6.8125 2.1C6.675 1.96875 6.4875 1.93125 6.34375 2.0125Z" fill="white"/>
<path d="M12.75 1.9875C12.7 2.00625 12.6063 2.05625 12.55 2.1125C12.4438 2.2 12.4375 2.39375 12.4375 4.48125C12.4375 6.66875 12.4438 6.75625 12.5625 6.875C12.6313 6.94375 12.7562 7 12.8438 7C12.9313 7 13.0563 6.94375 13.125 6.875C13.2438 6.75625 13.25 6.66875 13.25 4.5125C13.25 2.65 13.2375 2.25625 13.1562 2.14375C13.0563 2.00625 12.9 1.94375 12.75 1.9875Z" fill="white"/>
<path d="M19.0188 2.00625C18.9438 2.03125 18.8563 2.1125 18.8188 2.18125C18.775 2.2625 18.75 3.075 18.75 4.525C18.75 6.66875 18.7563 6.75625 18.875 6.875C18.9438 6.94375 19.0687 7 19.1562 7C19.2438 7 19.3688 6.94375 19.4375 6.875C19.5563 6.75625 19.5625 6.66875 19.5625 4.48125C19.5625 2.39375 19.5563 2.2 19.4563 2.1125C19.2937 1.975 19.175 1.95 19.0188 2.00625Z" fill="white"/>
<path d="M25.325 2C25.25 2.03125 25.1562 2.13125 25.125 2.21875C25.0875 2.31875 25.0625 3.26875 25.0625 4.525C25.0625 6.6 25.0688 6.675 25.1938 6.8375C25.3438 7.03125 25.6188 7.05625 25.7688 6.8875C25.8625 6.78125 25.875 6.525 25.875 4.49375C25.875 3.24375 25.85 2.1875 25.825 2.15C25.7875 2.0875 25.5312 1.93125 25.4875 1.94375C25.475 1.94375 25.4062 1.96875 25.325 2Z" fill="white"/>
<path d="M3.84375 4.2375C2.93125 4.55 2.26875 5.25625 2.0375 6.15625C1.95 6.48125 1.9375 7.74375 1.9375 17.0625C1.9375 26.325 1.95 27.6437 2.03125 27.9687C2.31875 29.0625 3.225 29.85 4.38125 30C5.00625 30.0812 26.9937 30.0812 27.6187 30C28.775 29.85 29.6812 29.0625 29.9688 27.9687C30.05 27.6437 30.0625 26.325 30.0625 17.0625C30.0625 7.74375 30.05 6.48125 29.9625 6.15625C29.7625 5.3875 29.2437 4.75 28.5125 4.3875C28.0688 4.175 27.9937 4.15625 27.3625 4.13125L26.6875 4.1125V5.475C26.6875 6.66875 26.6688 6.875 26.5688 7.09375C26.175 7.975 24.95 8.04375 24.4688 7.225C24.3125 6.9625 24.3125 6.9375 24.3125 5.54375V4.125H22.3438H20.375V5.41875C20.375 6.1375 20.3438 6.825 20.3062 6.95625C20.1 7.71875 19.1375 8.05 18.4813 7.5875C18.0125 7.25 17.9688 7.1 17.95 5.5125L17.9313 4.125H16H14.0688L14.05 5.5125C14.0312 7.1 13.9875 7.25 13.5188 7.5875C12.8625 8.05 11.9 7.71875 11.6938 6.95625C11.6562 6.825 11.625 6.1375 11.625 5.41875V4.125H9.65625H7.6875V5.54375C7.6875 6.9125 7.68125 6.98125 7.54375 7.2C7.04375 8.03125 5.88125 7.9875 5.4375 7.11875C5.325 6.90625 5.3125 6.74375 5.3125 5.5V4.125H4.7375C4.35 4.13125 4.05 4.16875 3.84375 4.2375ZM29.2375 19.1062L29.2188 27.8437L29.0312 28.1812C28.8 28.6062 28.3938 28.9625 27.9813 29.1062C27.675 29.2125 27.075 29.2187 16 29.2187C4.925 29.2187 4.325 29.2125 4.01875 29.1062C3.60625 28.9625 3.2 28.6062 2.96875 28.1812L2.78125 27.8437L2.7625 19.1062L2.75 10.375H16H29.25L29.2375 19.1062Z" fill="white"/>
<path d="M5.70001 12.0375C5.56251 12.1313 5.56251 12.1438 5.56251 13.875C5.56251 15.7938 5.55626 15.7688 5.95626 15.8438C6.06876 15.8688 6.84376 15.875 7.68126 15.8625C9.18751 15.8438 9.20001 15.8438 9.31876 15.6938C9.43126 15.5563 9.43751 15.4313 9.43751 13.8938V12.2438L9.28126 12.0938L9.13126 11.9375H7.48751C6.10001 11.9375 5.81876 11.95 5.70001 12.0375Z" fill="white"/>
<path d="M11.3688 12.0562L11.2188 12.175V13.9C11.2188 15.4688 11.2313 15.6312 11.3313 15.7312C11.4313 15.8312 11.5938 15.8438 13.1562 15.8438C14.7188 15.8438 14.8813 15.8312 14.9813 15.7312C15.0812 15.6312 15.0938 15.4562 15.1125 13.9375L15.1313 12.25L14.975 12.0938L14.8188 11.9375H13.1688C11.6312 11.9375 11.5062 11.9437 11.3688 12.0562Z" fill="white"/>
<path d="M17.0249 12.0938L16.8687 12.25L16.8874 13.9375C16.9062 15.4562 16.9187 15.6312 17.0187 15.7312C17.1187 15.8312 17.2812 15.8438 18.8437 15.8438C20.4062 15.8438 20.5687 15.8312 20.6687 15.7312C20.7687 15.6312 20.7812 15.4688 20.7812 13.9V12.175L20.6312 12.0562C20.4937 11.9437 20.3687 11.9375 18.8312 11.9375H17.1812L17.0249 12.0938Z" fill="white"/>
<path d="M22.7188 12.0938L22.5625 12.2438V13.8938C22.5625 15.4313 22.5688 15.5563 22.6812 15.6938C22.8 15.8438 22.8125 15.8438 24.3188 15.8625C25.1562 15.875 25.9313 15.8688 26.0438 15.8438C26.4438 15.7688 26.4375 15.7938 26.4375 13.875C26.4375 12.1438 26.4375 12.1313 26.3 12.0375C26.1813 11.95 25.9 11.9375 24.5125 11.9375H22.8688L22.7188 12.0938Z" fill="white"/>
<path d="M5.6625 17.7875C5.575 17.8687 5.5625 18.125 5.5625 19.625C5.5625 21.3563 5.5625 21.3687 5.7 21.4625C5.81875 21.55 6.1 21.5625 7.50625 21.5625H9.18125L9.30625 21.4C9.43125 21.2438 9.4375 21.1562 9.4375 19.6C9.4375 18.2188 9.425 17.9437 9.3375 17.825C9.24375 17.6875 9.23125 17.6875 7.5 17.6875C6 17.6875 5.74375 17.7 5.6625 17.7875Z" fill="white"/>
<path d="M11.35 17.7875C11.1875 17.9437 11.1813 18.075 11.2 19.7437C11.2188 21.3187 11.2188 21.325 11.3688 21.4438C11.5063 21.5562 11.6313 21.5625 13.1688 21.5625H14.8188L14.975 21.4062L15.1313 21.25L15.1125 19.5562C15.0938 17.9688 15.0875 17.8625 14.975 17.775C14.875 17.7062 14.5188 17.6875 13.15 17.6875C11.6875 17.6875 11.4313 17.7 11.35 17.7875Z" fill="white"/>
<path d="M17.0249 17.775C16.9124 17.8625 16.9062 17.9688 16.8874 19.5562L16.8687 21.25L17.0249 21.4062L17.1812 21.5625H18.8312C20.3687 21.5625 20.4937 21.5562 20.6312 21.4438C20.7812 21.325 20.7812 21.3187 20.7999 19.7437C20.8124 18.8687 20.8062 18.0938 20.7812 18.0187C20.6999 17.6875 20.6874 17.6875 18.8499 17.6875C17.4812 17.6875 17.1249 17.7062 17.0249 17.775Z" fill="white"/>
<path d="M22.6625 17.825C22.575 17.9437 22.5625 18.2188 22.5625 19.6C22.5625 21.1562 22.5688 21.2438 22.6938 21.4L22.8187 21.5625H24.4937C25.9 21.5625 26.1813 21.55 26.3 21.4625C26.4375 21.3687 26.4375 21.3563 26.4375 19.625C26.4375 18.125 26.425 17.8687 26.3375 17.7875C26.2563 17.7 26 17.6875 24.5 17.6875C22.7687 17.6875 22.7563 17.6875 22.6625 17.825Z" fill="white"/>
<path d="M5.7 23.475C5.5625 23.5687 5.5625 23.5812 5.5625 25.3062C5.5625 26.9125 5.56875 27.05 5.675 27.1437C5.775 27.2375 5.99375 27.25 7.4875 27.25C9.10625 27.25 9.19375 27.2437 9.3125 27.125C9.43125 27.0062 9.4375 26.9187 9.4375 25.35C9.4375 23.7812 9.43125 23.6937 9.30625 23.5375L9.18125 23.375H7.50625C6.1 23.375 5.81875 23.3875 5.7 23.475Z" fill="white"/>
<path d="M11.3688 23.4937C11.2188 23.6125 11.2188 23.6187 11.2001 25.1937C11.1876 26.0688 11.1938 26.8438 11.2188 26.9187C11.3001 27.25 11.3126 27.25 13.1501 27.25C14.5188 27.25 14.8751 27.2312 14.9751 27.1625C15.0876 27.075 15.0938 26.975 15.1126 25.3937C15.1313 23.7625 15.1251 23.7062 15.0001 23.5438L14.8688 23.375H13.1876C11.6313 23.375 11.5063 23.3812 11.3688 23.4937Z" fill="white"/>
<path d="M17.0001 23.5438C16.8751 23.7062 16.8688 23.7625 16.8876 25.3937C16.9063 26.975 16.9126 27.075 17.0251 27.1625C17.1251 27.2312 17.4813 27.25 18.8501 27.25C20.6876 27.25 20.7001 27.25 20.7813 26.9187C20.8063 26.8438 20.8126 26.0688 20.8001 25.1937C20.7813 23.6187 20.7813 23.6125 20.6313 23.4937C20.4938 23.3812 20.3688 23.375 18.8126 23.375H17.1313L17.0001 23.5438Z" fill="white"/>
<path d="M22.6938 23.5375C22.5688 23.6937 22.5625 23.7812 22.5625 25.35C22.5625 26.9187 22.5688 27.0062 22.6875 27.125C22.8063 27.2437 22.8938 27.25 24.5188 27.25C26.1 27.25 26.2375 27.2437 26.3312 27.1375C26.425 27.0375 26.4375 26.8125 26.4375 25.2937C26.4375 23.5812 26.4375 23.5687 26.3 23.475C26.1813 23.3875 25.9 23.375 24.4937 23.375H22.8187L22.6938 23.5375Z" fill="white"/>
</svg>
