<svg width="589" height="619" viewBox="0 0 589 619" fill="none" xmlns="http://www.w3.org/2000/svg">
<path d="M143.165 1.45439C131.031 5.72106 125.031 15.1877 124.098 31.1877L123.565 41.9877L113.165 44.1211C99.4313 46.9211 82.098 54.1211 68.098 62.7877C54.6313 71.0544 33.4313 91.3211 25.1647 103.721C12.098 123.188 3.83134 145.988 1.03134 169.854C0.0980086 177.721 -0.168658 235.588 0.0980086 337.854L0.498009 493.854L4.09801 506.654C13.298 540.388 30.3647 566.788 55.8313 586.388C74.7647 601.054 97.5647 611.454 121.165 616.121C134.365 618.788 455.165 618.654 468.498 615.988C527.031 604.388 570.631 562.654 585.565 504.121L588.498 492.521V330.521C588.498 197.454 588.231 166.788 586.631 159.188C578.631 119.054 556.098 85.7211 521.965 63.5877C508.365 54.7877 487.565 46.2544 474.231 43.7211L465.165 42.1211V33.9877C465.165 18.1211 460.498 9.18773 449.298 3.4544C438.365 -2.01227 427.831 -0.945605 419.031 6.78773C411.831 13.1877 409.165 19.4544 409.165 30.5211V39.8544H365.831H322.498V30.7877C322.498 19.5877 318.898 11.7211 310.898 5.72106C301.031 -1.74561 287.965 -1.74561 278.098 5.72106C270.098 11.7211 266.498 19.5877 266.498 30.7877V39.8544H223.165H179.831V30.5211C179.831 23.8544 179.031 19.5877 177.298 15.9877C170.765 3.32106 155.965 -3.07894 143.165 1.45439ZM155.965 22.5211C158.365 23.8544 158.498 25.5877 158.498 49.5877C158.498 67.8544 158.098 75.7211 156.898 76.9211C154.631 79.1877 150.498 78.9211 147.565 76.2544C145.431 74.3877 145.165 71.7211 145.165 50.6544C145.165 31.4544 145.565 26.5211 147.298 24.1211C149.565 20.9211 151.965 20.3877 155.965 22.5211ZM298.765 23.4544C300.898 25.3211 301.165 28.1211 301.165 49.9877C301.165 75.8544 300.498 78.5211 294.498 78.5211C288.498 78.5211 287.831 75.8544 287.831 50.2544C287.831 29.5877 288.098 25.7211 290.098 23.5877C292.765 20.6544 295.565 20.5211 298.765 23.4544ZM441.698 24.1211C444.898 28.6544 444.765 72.5211 441.565 76.1211C439.165 78.9211 434.498 79.3211 432.098 76.9211C430.898 75.7211 430.498 67.8544 430.498 49.5877C430.498 26.6544 430.765 23.8544 432.898 22.6544C436.498 20.5211 439.565 20.9211 441.698 24.1211ZM567.431 347.454C567.031 503.454 567.431 495.054 559.831 515.588C551.431 537.988 533.698 560.921 514.098 574.388C503.698 581.454 486.631 589.321 473.298 592.921L460.498 596.521H295.831C139.831 596.521 130.631 596.388 120.498 593.988C73.298 583.054 37.1647 548.388 24.898 502.254C21.9647 491.188 21.9647 490.921 21.5647 347.454L21.0313 203.854H294.498H567.965L567.431 347.454Z" fill="wheat"/>
</svg>
