<svg width="120" height="120" viewBox="0 0 120 120" fill="none" xmlns="http://www.w3.org/2000/svg">
    <path d="M72.8204 9.72652C70.4532 10.2187 67.6407 11.6718 65.9064 13.289C63.9376 15.164 31.8048 55.3125 31.0079 56.9531C30.1642 58.6171 30.1173 61.1718 30.8673 62.8359C31.4767 64.1953 64.6642 105.727 66.2345 107.062C68.8829 109.383 73.172 110.789 76.7814 110.531C86.3439 109.852 92.297 100.008 88.4767 91.2656C88.172 90.5859 83.3907 83.2968 77.8126 75.0234L67.7111 60L77.8126 44.9765C83.3907 36.7031 88.172 29.414 88.4767 28.7343C91.2189 22.4765 88.8751 14.9296 83.0626 11.4375C80.1564 9.67965 76.1954 9.0234 72.8204 9.72652Z" fill="#FFF5DE" />
</svg>
