<svg width="456" height="456" viewBox="0 0 456 456" fill="none" xmlns="http://www.w3.org/2000/svg">
    <path d="M138.39 160.338C143.593 160.338 148.392 161.196 152.785 162.91C157.21 164.593 161.027 166.977 164.236 170.062C167.445 173.117 169.953 176.794 171.761 181.095C173.568 185.396 174.471 190.149 174.471 195.354C174.471 198.315 174.129 201.229 173.443 204.096C172.758 206.964 171.745 209.675 170.405 212.231C169.097 214.787 167.476 217.155 165.545 219.337C163.613 221.487 161.4 223.357 158.908 224.947C156.446 226.505 153.72 227.721 150.729 228.593C147.738 229.497 144.513 229.95 141.054 229.95C135.851 229.95 131.037 229.123 126.612 227.471C122.219 225.788 118.418 223.42 115.208 220.365C111.999 217.311 109.491 213.649 107.683 209.379C105.876 205.078 104.973 200.31 104.973 195.074C104.973 192.113 105.315 189.199 106.001 186.331C106.686 183.464 107.683 180.737 108.992 178.15C110.332 175.563 111.952 173.195 113.853 171.044C115.785 168.863 117.981 166.977 120.443 165.387C122.935 163.798 125.677 162.567 128.669 161.694C131.691 160.79 134.931 160.338 138.39 160.338ZM141.054 225.741C144.513 225.741 147.675 225.118 150.542 223.871C153.408 222.625 155.87 220.817 157.926 218.448C160.014 216.08 161.634 213.197 162.787 209.8C163.94 206.372 164.516 202.491 164.516 198.159C164.516 193.36 163.955 188.918 162.834 184.835C161.743 180.721 160.107 177.168 157.926 174.176C155.745 171.153 153.019 168.8 149.747 167.117C146.507 165.403 142.721 164.546 138.39 164.546C134.931 164.546 131.769 165.169 128.902 166.416C126.036 167.631 123.559 169.408 121.471 171.745C119.415 174.083 117.81 176.95 116.657 180.347C115.504 183.745 114.928 187.609 114.928 191.941C114.928 196.71 115.473 201.167 116.564 205.312C117.654 209.426 119.29 212.995 121.471 216.017C123.652 219.041 126.378 221.425 129.65 223.17C132.922 224.885 136.723 225.741 141.054 225.741ZM231.398 228.5V228.313C231.46 228.157 231.507 227.923 231.538 227.611C231.569 227.3 231.585 227.02 231.585 226.771C231.585 225.804 231.445 224.744 231.164 223.592C230.915 222.407 230.416 220.942 229.668 219.196L224.013 206.481C222.269 206.418 219.947 206.387 217.05 206.387C214.151 206.387 211.02 206.387 207.655 206.387C205.193 206.387 202.81 206.387 200.504 206.387C198.23 206.387 196.173 206.418 194.334 206.481L188.96 218.822C188.493 219.976 187.994 221.238 187.464 222.609C186.935 223.981 186.669 225.367 186.669 226.771C186.669 227.175 186.701 227.519 186.764 227.798C186.826 228.048 186.888 228.219 186.951 228.313V228.5H177.416V228.313C177.977 227.721 178.678 226.676 179.519 225.18C180.36 223.654 181.279 221.752 182.277 219.478L209.057 160.058H212.796L238.175 217.186C238.767 218.527 239.374 219.836 239.997 221.113C240.652 222.36 241.259 223.482 241.82 224.479C242.381 225.477 242.879 226.318 243.315 227.004C243.752 227.69 244.048 228.126 244.204 228.313V228.5H231.398ZM201.112 202.367C202.919 202.367 204.773 202.367 206.673 202.367C208.574 202.336 210.428 202.32 212.235 202.32C214.073 202.289 215.834 202.273 217.516 202.273C219.199 202.242 220.726 202.211 222.097 202.18L208.964 172.493L196.064 202.367H201.112ZM277.948 172.119H276.92C276.671 171.403 276.266 170.592 275.705 169.688C275.175 168.785 274.458 167.943 273.555 167.164C272.682 166.354 271.608 165.684 270.33 165.154C269.084 164.624 267.604 164.359 265.89 164.359C264.363 164.359 263.008 164.593 261.823 165.06C260.64 165.528 259.643 166.182 258.832 167.024C258.054 167.865 257.462 168.863 257.057 170.016C256.652 171.169 256.449 172.447 256.449 173.849C256.449 176.093 257.072 178.244 258.319 180.301C259.596 182.327 261.185 184.337 263.086 186.331C264.987 188.326 267.043 190.321 269.255 192.315C271.467 194.31 273.524 196.383 275.424 198.533C277.325 200.684 278.899 202.943 280.145 205.312C281.423 207.649 282.061 210.174 282.061 212.885C282.061 214.911 281.703 216.952 280.987 219.009C280.301 221.036 279.226 222.859 277.761 224.479C276.297 226.1 274.412 227.424 272.106 228.454C269.8 229.451 267.058 229.95 263.88 229.95C262.105 229.95 260.406 229.778 258.786 229.435C257.197 229.123 255.717 228.733 254.345 228.267C253.006 227.768 251.791 227.237 250.701 226.676C249.641 226.115 248.768 225.601 248.083 225.134L249.158 214.803H250.327C250.669 216.267 251.23 217.67 252.009 219.009C252.788 220.318 253.738 221.487 254.86 222.516C256.013 223.513 257.322 224.324 258.786 224.947C260.25 225.539 261.855 225.836 263.6 225.836C265.189 225.836 266.606 225.601 267.853 225.134C269.13 224.635 270.221 223.966 271.125 223.123C272.028 222.251 272.714 221.223 273.181 220.039C273.68 218.854 273.929 217.56 273.929 216.158C273.929 214.194 273.571 212.387 272.854 210.735C272.137 209.052 271.187 207.462 270.003 205.966C268.85 204.47 267.526 203.021 266.031 201.619C264.566 200.216 263.054 198.814 261.497 197.411C259.939 195.978 258.412 194.513 256.916 193.017C255.452 191.521 254.128 189.931 252.944 188.248C251.791 186.534 250.856 184.711 250.14 182.778C249.423 180.815 249.064 178.664 249.064 176.327C249.064 173.865 249.532 171.652 250.467 169.688C251.433 167.694 252.694 165.995 254.253 164.593C255.841 163.19 257.633 162.115 259.627 161.367C261.622 160.619 263.678 160.245 265.797 160.245C267.354 160.245 268.788 160.37 270.096 160.619C271.405 160.868 272.574 161.164 273.601 161.507C274.661 161.85 275.58 162.193 276.359 162.536C277.138 162.879 277.777 163.159 278.275 163.377L277.948 172.119ZM293.979 228.313C294.166 227.658 294.338 226.848 294.493 225.882C294.649 224.916 294.79 223.716 294.914 222.283C295.039 220.849 295.132 219.15 295.195 217.186C295.257 215.192 295.288 212.87 295.288 210.22V179.786C295.288 177.137 295.257 174.831 295.195 172.867C295.132 170.873 295.039 169.159 294.914 167.725C294.79 166.26 294.649 165.045 294.493 164.078C294.338 163.112 294.166 162.302 293.979 161.647V161.46H305.15V161.647C304.963 162.302 304.776 163.112 304.589 164.078C304.433 165.045 304.293 166.26 304.168 167.725C304.074 169.159 303.981 170.873 303.887 172.867C303.825 174.831 303.795 177.137 303.795 179.786V210.22C303.795 212.87 303.825 215.192 303.887 217.186C303.981 219.15 304.074 220.849 304.168 222.283C304.293 223.716 304.433 224.916 304.589 225.882C304.776 226.848 304.963 227.658 305.15 228.313V228.5H293.979V228.313ZM346.933 172.119H345.905C345.656 171.403 345.25 170.592 344.689 169.688C344.16 168.785 343.443 167.943 342.54 167.164C341.667 166.354 340.592 165.684 339.315 165.154C338.068 164.624 336.589 164.359 334.875 164.359C333.348 164.359 331.993 164.593 330.808 165.06C329.624 165.528 328.627 166.182 327.817 167.024C327.038 167.865 326.446 168.863 326.042 170.016C325.636 171.169 325.434 172.447 325.434 173.849C325.434 176.093 326.057 178.244 327.303 180.301C328.58 182.327 330.169 184.337 332.07 186.331C333.971 188.326 336.028 190.321 338.24 192.315C340.452 194.31 342.508 196.383 344.409 198.533C346.31 200.684 347.883 202.943 349.129 205.312C350.407 207.649 351.046 210.174 351.046 212.885C351.046 214.911 350.688 216.952 349.971 219.009C349.285 221.036 348.21 222.859 346.746 224.479C345.282 226.1 343.397 227.424 341.09 228.454C338.785 229.451 336.043 229.95 332.865 229.95C331.089 229.95 329.391 229.778 327.77 229.435C326.181 229.123 324.702 228.733 323.33 228.267C321.991 227.768 320.776 227.237 319.685 226.676C318.626 226.115 317.753 225.601 317.068 225.134L318.143 214.803H319.311C319.654 216.267 320.215 217.67 320.994 219.009C321.772 220.318 322.723 221.487 323.845 222.516C324.998 223.513 326.306 224.324 327.77 224.947C329.235 225.539 330.839 225.836 332.585 225.836C334.173 225.836 335.591 225.601 336.838 225.134C338.115 224.635 339.206 223.966 340.109 223.123C341.013 222.251 341.698 221.223 342.166 220.039C342.664 218.854 342.913 217.56 342.913 216.158C342.913 214.194 342.555 212.387 341.838 210.735C341.122 209.052 340.171 207.462 338.988 205.966C337.834 204.47 336.511 203.021 335.015 201.619C333.55 200.216 332.039 198.814 330.481 197.411C328.924 195.978 327.397 194.513 325.901 193.017C324.437 191.521 323.112 189.931 321.929 188.248C320.776 186.534 319.841 184.711 319.124 182.778C318.407 180.815 318.049 178.664 318.049 176.327C318.049 173.865 318.516 171.652 319.451 169.688C320.417 167.694 321.679 165.995 323.237 164.593C324.826 163.19 326.617 162.115 328.612 161.367C330.606 160.619 332.663 160.245 334.781 160.245C336.339 160.245 337.772 160.37 339.081 160.619C340.39 160.868 341.558 161.164 342.586 161.507C343.646 161.85 344.565 162.193 345.344 162.536C346.123 162.879 346.762 163.159 347.26 163.377L346.933 172.119Z" fill="white" />
    <path d="M145.769 300.325C146.134 299.863 146.706 299.242 147.485 298.463C148.264 297.659 149.165 296.722 150.187 295.65C151.209 294.555 152.305 293.337 153.473 291.999C154.642 290.659 155.81 289.21 156.978 287.652C158.147 286.094 159.267 284.438 160.338 282.684C161.433 280.907 162.395 279.057 163.222 277.134C164.05 275.21 164.707 273.213 165.194 271.144C165.705 269.074 165.961 266.955 165.961 264.789C165.961 262.475 165.681 260.479 165.121 258.799C164.585 257.094 163.843 255.694 162.894 254.599C161.944 253.478 160.825 252.65 159.534 252.114C158.269 251.579 156.893 251.311 155.408 251.311C153.558 251.311 151.879 251.627 150.369 252.261C148.885 252.869 147.582 253.588 146.463 254.415C145.367 255.243 144.466 256.071 143.76 256.899C143.079 257.727 142.616 258.36 142.373 258.799L141.862 258.579L144.345 251.165C145.635 250.581 146.84 250.081 147.96 249.668C149.104 249.229 150.248 248.876 151.392 248.609C152.56 248.341 153.753 248.146 154.97 248.024C156.212 247.878 157.575 247.805 159.06 247.805C160.058 247.805 161.117 247.914 162.236 248.134C163.356 248.353 164.464 248.706 165.559 249.193C166.655 249.68 167.689 250.312 168.663 251.092C169.661 251.847 170.537 252.784 171.292 253.904C172.071 255 172.679 256.279 173.118 257.739C173.58 259.2 173.811 260.868 173.811 262.743C173.811 264.74 173.507 266.748 172.898 268.769C172.29 270.766 171.487 272.738 170.489 274.686C169.491 276.61 168.346 278.496 167.056 280.347C165.766 282.197 164.439 283.963 163.076 285.644C161.713 287.324 160.362 288.906 159.023 290.391C157.684 291.852 156.479 293.192 155.408 294.409H169.466C170.367 294.409 171.243 294.397 172.095 294.372C172.971 294.323 173.775 294.263 174.505 294.189C175.235 294.092 175.868 293.97 176.404 293.824C176.964 293.679 177.389 293.496 177.682 293.277H177.828V301.056H145.769V300.325ZM188.563 275.161C188.563 277.157 188.819 279.081 189.33 280.932C189.841 282.782 190.547 284.523 191.447 286.154C192.372 287.762 193.48 289.235 194.77 290.574C196.084 291.913 197.533 293.058 199.115 294.007C200.722 294.957 202.438 295.7 204.264 296.235C206.089 296.746 208.001 297.002 209.996 297.002C211.992 297.002 213.903 296.746 215.729 296.235C217.579 295.7 219.295 294.957 220.878 294.007C222.484 293.058 223.932 291.913 225.222 290.574C226.512 289.235 227.621 287.762 228.546 286.154C229.471 284.523 230.189 282.782 230.699 280.932C231.211 279.081 231.467 277.157 231.467 275.161C231.467 272.166 230.906 269.354 229.787 266.724C228.667 264.07 227.134 261.757 225.186 259.784C223.263 257.788 220.999 256.217 218.394 255.073C215.79 253.904 212.991 253.32 209.996 253.32C207.002 253.32 204.203 253.904 201.598 255.073C198.993 256.217 196.718 257.788 194.77 259.784C192.847 261.757 191.325 264.07 190.206 266.724C189.11 269.354 188.563 272.166 188.563 275.161ZM182.867 275.015C182.867 272.531 183.183 270.133 183.816 267.819C184.473 265.507 185.386 263.352 186.554 261.355C187.747 259.334 189.172 257.496 190.827 255.84C192.482 254.184 194.308 252.772 196.303 251.604C198.324 250.41 200.49 249.497 202.803 248.864C205.116 248.207 207.514 247.878 209.996 247.878C212.479 247.878 214.877 248.207 217.19 248.864C219.502 249.497 221.669 250.41 223.689 251.604C225.709 252.772 227.547 254.184 229.202 255.84C230.858 257.496 232.27 259.334 233.439 261.355C234.631 263.352 235.544 265.507 236.177 267.819C236.834 270.133 237.163 272.531 237.163 275.015C237.163 277.522 236.834 279.933 236.177 282.247C235.544 284.535 234.631 286.69 233.439 288.711C232.27 290.732 230.858 292.571 229.202 294.226C227.547 295.882 225.709 297.306 223.689 298.499C221.669 299.669 219.502 300.569 217.19 301.202C214.877 301.859 212.479 302.189 209.996 302.189C207.514 302.189 205.116 301.859 202.803 301.202C200.49 300.569 198.324 299.669 196.303 298.499C194.308 297.306 192.482 295.882 190.827 294.226C189.172 292.571 187.747 290.732 186.554 288.711C185.386 286.69 184.473 284.535 183.816 282.247C183.183 279.933 182.867 277.522 182.867 275.015ZM245.889 300.325C246.254 299.863 246.826 299.242 247.606 298.463C248.384 297.659 249.285 296.722 250.307 295.65C251.33 294.555 252.425 293.337 253.594 291.999C254.762 290.659 255.931 289.21 257.099 287.652C258.268 286.094 259.387 284.438 260.458 282.684C261.554 280.907 262.515 279.057 263.343 277.134C264.171 275.21 264.827 273.213 265.314 271.144C265.826 269.074 266.082 266.955 266.082 264.789C266.082 262.475 265.802 260.479 265.242 258.799C264.706 257.094 263.964 255.694 263.014 254.599C262.065 253.478 260.945 252.65 259.655 252.114C258.389 251.579 257.014 251.311 255.529 251.311C253.679 251.311 251.999 251.627 250.49 252.261C249.005 252.869 247.703 253.588 246.583 254.415C245.488 255.243 244.587 256.071 243.881 256.899C243.2 257.727 242.737 258.36 242.494 258.799L241.982 258.579L244.466 251.165C245.756 250.581 246.96 250.081 248.08 249.668C249.225 249.229 250.368 248.876 251.512 248.609C252.681 248.341 253.874 248.146 255.091 248.024C256.332 247.878 257.696 247.805 259.18 247.805C260.178 247.805 261.237 247.914 262.357 248.134C263.477 248.353 264.584 248.706 265.68 249.193C266.775 249.68 267.81 250.312 268.783 251.092C269.782 251.847 270.658 252.784 271.413 253.904C272.191 255 272.8 256.279 273.238 257.739C273.701 259.2 273.932 260.868 273.932 262.743C273.932 264.74 273.628 266.748 273.019 268.769C272.41 270.766 271.607 272.738 270.609 274.686C269.611 276.61 268.467 278.496 267.177 280.347C265.886 282.197 264.56 283.963 263.197 285.644C261.834 287.324 260.483 288.906 259.144 290.391C257.805 291.852 256.6 293.192 255.529 294.409H269.586C270.488 294.409 271.364 294.397 272.216 294.372C273.092 294.323 273.895 294.263 274.626 294.189C275.356 294.092 275.989 293.97 276.525 293.824C277.084 293.679 277.51 293.496 277.803 293.277H277.948V301.056H245.889V300.325ZM290.473 270.523C291.787 270.352 293.15 270.023 294.562 269.536C295.998 269.025 297.313 268.319 298.505 267.418C299.723 266.517 300.72 265.385 301.5 264.021C302.279 262.657 302.668 261.014 302.668 259.09C302.668 257.995 302.51 256.972 302.194 256.023C301.877 255.049 301.378 254.197 300.696 253.466C300.039 252.735 299.187 252.163 298.14 251.749C297.118 251.311 295.901 251.092 294.489 251.092C292.834 251.092 291.337 251.323 289.998 251.786C288.683 252.248 287.503 252.833 286.456 253.539C285.409 254.245 284.497 255.037 283.718 255.913C282.938 256.765 282.294 257.605 281.782 258.434L281.271 258.178L283.644 250.654C284.594 250.264 285.556 249.899 286.529 249.558C287.503 249.193 288.525 248.888 289.596 248.645C290.692 248.377 291.848 248.17 293.065 248.024C294.306 247.878 295.658 247.805 297.118 247.805C297.873 247.805 298.713 247.878 299.638 248.024C300.563 248.146 301.5 248.365 302.449 248.681C303.423 248.998 304.36 249.424 305.26 249.959C306.161 250.471 306.965 251.117 307.67 251.895C308.401 252.675 308.973 253.6 309.387 254.671C309.825 255.718 310.044 256.923 310.044 258.287C310.044 259.992 309.703 261.489 309.022 262.779C308.34 264.046 307.5 265.154 306.502 266.103C305.504 267.028 304.445 267.795 303.326 268.404C302.206 268.989 301.208 269.451 300.332 269.792C301.792 269.914 303.276 270.218 304.786 270.705C306.319 271.192 307.707 271.935 308.948 272.933C310.19 273.907 311.2 275.185 311.979 276.768C312.782 278.351 313.184 280.286 313.184 282.575C313.184 285.18 312.697 287.652 311.724 289.989C310.774 292.327 309.484 294.506 307.853 296.527C306.222 298.548 304.335 300.411 302.194 302.115C300.051 303.82 297.788 305.341 295.402 306.681C293.04 308.02 290.631 309.176 288.172 310.15C285.738 311.124 283.413 311.879 281.198 312.415L280.504 310.552C284.009 309.675 287.271 308.434 290.29 306.827C293.308 305.219 295.925 303.272 298.14 300.983C300.38 298.67 302.132 296.028 303.398 293.058C304.688 290.087 305.334 286.8 305.334 283.196C305.334 281.175 305.041 279.483 304.457 278.119C303.873 276.756 303.107 275.672 302.157 274.869C301.232 274.041 300.185 273.456 299.017 273.115C297.873 272.75 296.717 272.568 295.548 272.568C294.842 272.568 294.185 272.604 293.576 272.678C292.968 272.75 292.432 272.835 291.97 272.933C291.434 273.031 290.935 273.152 290.473 273.299V270.523Z" fill="#F2CB56" />
</svg>
